<svg xmlns="http://www.w3.org/2000/svg" aria-hidden="true" style="position:absolute;width:0;height:0;overflow:hidden"><defs>

<symbol id="icon-modal-email" viewBox="0 0 24 32"><path fill="#e5e5e5" d="M0 0h24v32H0V0z" style="fill:var(--color1, #e5e5e5)"/><path fill="#fff" d="M-741.333-466.667h1920v896h-1920v-896z" style="fill:var(--color2, #fff)"/><path d="M-741.333-370.667h1920v800h-1920v-800z" style="fill:var(--color3, #000)"/><path fill="#2e2f42" d="M-741.333-370.667h1920v800h-1920v-800z" opacity=".7" style="fill:var(--color4, #2e2f42)"/><path fill="#fff" d="M-70.289-52.531V-44h-28.255v-8.531h28.255zm-24.682-44.552V-44h-10.938v-53.083h10.938zm21 21.619v8.313h-24.573v-8.313h24.573zm3.646-21.619v8.568h-28.219v-8.568h28.219zM-50.348-44h-10.573v-42.948c0-2.99.583-5.505 1.75-7.547a11.447 11.447 0 0 1 4.995-4.667c2.163-1.069 4.727-1.604 7.693-1.604.972 0 1.908.073 2.807.219.899.122 1.774.28 2.625.474l-.109 7.911c-.462-.121-.948-.207-1.458-.255s-1.106-.073-1.787-.073c-1.264 0-2.345.219-3.245.656-.875.413-1.543 1.033-2.005 1.859s-.693 1.835-.693 3.026v42.948zm7.875-39.448v7.437h-24.318v-7.437h24.318zM-22.094-44h-10.573v-42.948c0-2.99.583-5.505 1.75-7.547a11.447 11.447 0 0 1 4.995-4.667c2.163-1.069 4.727-1.604 7.693-1.604.972 0 1.908.073 2.807.219.899.122 1.774.28 2.625.474l-.109 7.911c-.462-.121-.948-.207-1.458-.255s-1.106-.073-1.786-.073c-1.264 0-2.346.219-3.245.656-.875.413-1.543 1.033-2.005 1.859s-.693 1.835-.693 3.026v42.948zm7.875-39.448v7.437h-24.318v-7.437h24.318zm24.28 40.177c-3.063 0-5.809-.486-8.24-1.458-2.431-.997-4.497-2.37-6.198-4.12a18.323 18.323 0 0 1-3.865-6.089c-.899-2.333-1.349-4.813-1.349-7.437v-1.458c0-2.99.425-5.724 1.276-8.203s2.066-4.63 3.646-6.453c1.604-1.823 3.549-3.221 5.833-4.193 2.285-.997 4.861-1.495 7.729-1.495 2.795 0 5.274.462 7.437 1.385s3.974 2.236 5.432 3.938c1.483 1.701 2.601 3.743 3.354 6.125.753 2.358 1.13 4.983 1.13 7.875v4.375H-5.108v-7h21.037v-.802c0-1.458-.267-2.759-.802-3.901-.51-1.167-1.288-2.09-2.333-2.771s-2.382-1.021-4.01-1.021c-1.385 0-2.576.304-3.573.911S3.4-73.605 2.768-72.511c-.608 1.094-1.069 2.382-1.385 3.865-.292 1.458-.438 3.063-.438 4.813v1.458c0 1.58.219 3.038.656 4.375.462 1.337 1.106 2.491 1.932 3.464a8.817 8.817 0 0 0 3.063 2.26c1.215.535 2.589.802 4.12.802 1.896 0 3.658-.365 5.287-1.094 1.653-.753 3.075-1.884 4.266-3.391l5.104 5.542c-.826 1.191-1.957 2.333-3.391 3.427-1.41 1.094-3.111 1.993-5.104 2.698-1.993.681-4.266 1.021-6.818 1.021zm39.957-8.203c1.288 0 2.431-.243 3.427-.729.997-.511 1.774-1.215 2.333-2.115.583-.924.887-2.005.911-3.245h9.88c-.024 2.771-.766 5.238-2.224 7.401-1.458 2.139-3.415 3.828-5.87 5.068-2.455 1.215-5.201 1.823-8.24 1.823-3.062 0-5.736-.51-8.021-1.531-2.26-1.021-4.144-2.431-5.651-4.229-1.507-1.823-2.637-3.938-3.391-6.344-.753-2.431-1.13-5.031-1.13-7.802v-1.057c0-2.795.377-5.396 1.13-7.802.753-2.431 1.884-4.545 3.391-6.344 1.507-1.823 3.391-3.245 5.651-4.266s4.91-1.531 7.948-1.531c3.233 0 6.064.62 8.495 1.859 2.455 1.24 4.375 3.014 5.76 5.323 1.41 2.285 2.127 4.995 2.151 8.13h-9.88c-.024-1.313-.304-2.503-.839-3.573a6.05 6.05 0 0 0-2.26-2.552c-.972-.656-2.175-.984-3.609-.984-1.531 0-2.783.328-3.755.984-.972.632-1.726 1.507-2.26 2.625-.535 1.094-.911 2.345-1.13 3.755a31.392 31.392 0 0 0-.292 4.375v1.057c0 1.531.097 3.002.292 4.411s.559 2.661 1.094 3.755c.559 1.094 1.325 1.957 2.297 2.589s2.236.948 3.792.948zm43.457-31.974v7.437H70.506v-7.437h22.969zm-17.282-9.734h10.5v37.297c0 1.142.146 2.017.437 2.625.316.608.778 1.033 1.385 1.276.608.219 1.373.328 2.297.328.656 0 1.24-.024 1.75-.073.535-.073.984-.146 1.349-.219l.036 7.729c-.899.292-1.871.523-2.917.693s-2.2.255-3.463.255c-2.309 0-4.326-.377-6.052-1.13-1.701-.778-3.014-2.017-3.937-3.719s-1.385-3.938-1.385-6.708v-38.354zm35.837 9.734V-44h-10.536v-39.448h10.536zm-11.192-10.281c0-1.531.535-2.795 1.604-3.792s2.503-1.495 4.302-1.495c1.774 0 3.196.498 4.266 1.495 1.094.997 1.641 2.26 1.641 3.792s-.547 2.795-1.641 3.792c-1.069.997-2.491 1.495-4.266 1.495-1.799 0-3.233-.498-4.302-1.495s-1.604-2.26-1.604-3.792zm34.779 42.073 8.751-31.792h10.973L142.034-44h-6.636l.219-7.656zm-6.015-31.792 8.786 31.828.183 7.62h-6.672l-13.307-39.448h11.01zm49.582 40.177c-3.063 0-5.809-.486-8.24-1.458-2.431-.997-4.496-2.37-6.197-4.12a18.323 18.323 0 0 1-3.865-6.089c-.899-2.333-1.348-4.813-1.348-7.437v-1.458c0-2.99.425-5.724 1.276-8.203s2.065-4.63 3.645-6.453c1.604-1.823 3.548-3.221 5.833-4.193 2.284-.997 4.861-1.495 7.729-1.495 2.795 0 5.275.462 7.437 1.385s3.973 2.236 5.432 3.938c1.483 1.701 2.601 3.743 3.355 6.125.753 2.358 1.129 4.983 1.129 7.875v4.375h-31.353v-7h21.036v-.802c0-1.458-.267-2.759-.801-3.901a6.203 6.203 0 0 0-2.333-2.771c-1.045-.681-2.383-1.021-4.011-1.021-1.385 0-2.577.304-3.573.911s-1.811 1.458-2.443 2.552c-.608 1.094-1.069 2.382-1.385 3.865-.292 1.458-.437 3.063-.437 4.813v1.458c0 1.58.219 3.038.656 4.375.461 1.337 1.105 2.491 1.932 3.464a8.817 8.817 0 0 0 3.063 2.26c1.216.535 2.589.802 4.12.802 1.896 0 3.657-.365 5.287-1.094 1.652-.753 3.075-1.884 4.265-3.391l5.104 5.542c-.827 1.191-1.956 2.333-3.391 3.427-1.409 1.094-3.111 1.993-5.104 2.698-1.993.681-4.265 1.021-6.817 1.021zm72.039-14.62c0-.948-.147-1.799-.437-2.552-.268-.778-.779-1.483-1.532-2.115-.753-.656-1.811-1.3-3.172-1.932-1.36-.632-3.123-1.288-5.285-1.969a66.943 66.943 0 0 1-6.855-2.625c-2.139-.972-4.035-2.102-5.688-3.391-1.628-1.312-2.916-2.832-3.864-4.557-.924-1.726-1.385-3.731-1.385-6.016 0-2.212.485-4.217 1.459-6.016.972-1.823 2.333-3.378 4.083-4.667 1.751-1.312 3.816-2.321 6.197-3.026 2.407-.705 5.044-1.057 7.912-1.057 3.913 0 7.328.705 10.245 2.115 2.916 1.41 5.176 3.342 6.781 5.797 1.628 2.455 2.443 5.262 2.443 8.422H251.26c0-1.555-.328-2.917-.984-4.083-.632-1.191-1.604-2.127-2.917-2.807-1.288-.681-2.916-1.021-4.885-1.021-1.896 0-3.475.292-4.739.875-1.264.559-2.212 1.325-2.844 2.297-.632.948-.948 2.017-.948 3.208 0 .899.219 1.713.656 2.443.461.729 1.143 1.41 2.041 2.042.9.632 2.005 1.227 3.319 1.786 1.312.559 2.831 1.106 4.557 1.641 2.892.875 5.432 1.859 7.619 2.953 2.212 1.094 4.06 2.321 5.543 3.682s2.6 2.905 3.353 4.63 1.131 3.682 1.131 5.87c0 2.309-.449 4.375-1.349 6.198-.899 1.823-2.199 3.366-3.901 4.63-1.701 1.264-3.731 2.224-6.088 2.88s-4.995.984-7.912.984c-2.624 0-5.213-.34-7.765-1.021-2.552-.705-4.873-1.762-6.963-3.172-2.067-1.41-3.719-3.208-4.959-5.396s-1.86-4.776-1.86-7.766h10.975c0 1.653.255 3.05.765 4.193s1.228 2.066 2.151 2.771c.948.705 2.067 1.215 3.355 1.531 1.312.316 2.747.474 4.301.474 1.896 0 3.452-.267 4.667-.802 1.24-.535 2.152-1.276 2.735-2.224.608-.948.912-2.017.912-3.208zm17.534-5.432v-.766c0-2.892.413-5.554 1.24-7.984.827-2.455 2.029-4.582 3.609-6.38s3.524-3.196 5.833-4.193c2.309-1.021 4.959-1.531 7.948-1.531s5.651.51 7.984 1.531c2.333.997 4.291 2.394 5.869 4.193 1.605 1.799 2.82 3.925 3.647 6.38.827 2.431 1.239 5.092 1.239 7.984v.766c0 2.868-.412 5.529-1.239 7.984-.827 2.431-2.041 4.557-3.647 6.38-1.579 1.799-3.524 3.196-5.833 4.193-2.308.997-4.957 1.495-7.948 1.495-2.989 0-5.651-.498-7.984-1.495-2.309-.997-4.265-2.394-5.869-4.193-1.58-1.823-2.783-3.95-3.609-6.38-.827-2.455-1.24-5.116-1.24-7.984zm10.5-.766v.766c0 1.653.145 3.196.437 4.63s.753 2.698 1.385 3.792a7.239 7.239 0 0 0 2.552 2.516c1.045.608 2.321.911 3.828.911 1.459 0 2.711-.304 3.756-.911s1.884-1.446 2.516-2.516c.632-1.094 1.093-2.358 1.385-3.792.316-1.434.473-2.977.473-4.63v-.766c0-1.604-.157-3.111-.473-4.521-.292-1.434-.767-2.698-1.423-3.792-.632-1.118-1.471-1.993-2.515-2.625-1.045-.632-2.309-.948-3.792-.948s-2.747.316-3.792.948c-1.021.632-1.86 1.507-2.516 2.625-.632 1.094-1.093 2.358-1.385 3.792-.292 1.41-.437 2.917-.437 4.521zm45.9-35.911v56H314.62v-56h10.537zm33.504 46.557v-30.005h10.5V-44h-9.881l-.619-9.443zm1.167-8.093 3.099-.073c0 2.625-.304 5.068-.912 7.328-.607 2.236-1.519 4.181-2.735 5.833a12.773 12.773 0 0 1-4.593 3.828c-1.847.899-4.023 1.349-6.525 1.349-1.92 0-3.695-.267-5.324-.802a10.836 10.836 0 0 1-4.156-2.589c-1.143-1.191-2.041-2.71-2.697-4.557-.632-1.871-.948-4.12-.948-6.745v-25.484h10.5v25.557c0 1.167.133 2.151.401 2.953.291.802.692 1.458 1.203 1.969s1.105.875 1.787 1.094c.704.219 1.483.328 2.333.328 2.163 0 3.864-.437 5.104-1.312 1.264-.875 2.151-2.066 2.661-3.573.535-1.531.803-3.233.803-5.104zm38.169-21.912v7.437h-22.968v-7.437h22.968zm-17.281-9.734h10.5v37.297c0 1.142.147 2.017.439 2.625.316.608.777 1.033 1.385 1.276.607.219 1.373.328 2.296.328.657 0 1.24-.024 1.751-.073.535-.073.984-.146 1.349-.219l.036 7.729c-.9.292-1.872.523-2.917.693-1.044.17-2.199.255-3.463.255-2.309 0-4.327-.377-6.052-1.13-1.701-.778-3.015-2.017-3.937-3.719-.924-1.701-1.387-3.938-1.387-6.708v-38.354zm35.837 9.734V-44h-10.536v-39.448h10.536zm-11.192-10.281c0-1.531.535-2.795 1.604-3.792s2.503-1.495 4.301-1.495c1.775 0 3.197.498 4.267 1.495 1.093.997 1.64 2.26 1.64 3.792s-.547 2.795-1.64 3.792c-1.069.997-2.492 1.495-4.267 1.495-1.799 0-3.232-.498-4.301-1.495s-1.604-2.26-1.604-3.792zm19.686 30.406v-.766c0-2.892.413-5.554 1.24-7.984.827-2.455 2.029-4.582 3.609-6.38s3.524-3.196 5.833-4.193c2.309-1.021 4.959-1.531 7.948-1.531s5.651.51 7.984 1.531c2.333.997 4.291 2.394 5.871 4.193 1.604 1.799 2.819 3.925 3.645 6.38.827 2.431 1.24 5.092 1.24 7.984v.766c0 2.868-.413 5.529-1.24 7.984-.827 2.431-2.041 4.557-3.645 6.38-1.58 1.799-3.525 3.196-5.833 4.193-2.309.997-4.959 1.495-7.948 1.495-2.991 0-5.652-.498-7.985-1.495-2.308-.997-4.265-2.394-5.869-4.193-1.58-1.823-2.783-3.95-3.609-6.38-.827-2.455-1.24-5.116-1.24-7.984zm10.5-.766v.766c0 1.653.147 3.196.437 4.63.292 1.434.755 2.698 1.387 3.792a7.23 7.23 0 0 0 2.552 2.516c1.044.608 2.32.911 3.828.911 1.457 0 2.709-.304 3.755-.911s1.884-1.446 2.516-2.516c.632-1.094 1.093-2.358 1.385-3.792.316-1.434.473-2.977.473-4.63v-.766c0-1.604-.157-3.111-.473-4.521-.292-1.434-.765-2.698-1.423-3.792-.631-1.118-1.469-1.993-2.515-2.625s-2.309-.948-3.792-.948-2.747.316-3.792.948c-1.02.632-1.859 1.507-2.515 2.625-.632 1.094-1.095 2.358-1.387 3.792a22.346 22.346 0 0 0-.437 4.521zm45.097-10.937V-44h-10.5v-39.448h9.844l.656 8.422zm-1.531 9.917h-2.844c0-2.917.377-5.542 1.131-7.875.753-2.358 1.811-4.363 3.172-6.016 1.361-1.677 2.977-2.953 4.848-3.828 1.896-.899 4.011-1.349 6.344-1.349 1.848 0 3.537.267 5.068.802a9.684 9.684 0 0 1 3.937 2.552c1.119 1.167 1.969 2.71 2.552 4.63.608 1.92.912 4.266.912 7.036v25.156H493.66v-25.193c0-1.75-.243-3.111-.729-4.083-.485-.972-1.203-1.653-2.151-2.042-.924-.413-2.065-.62-3.427-.62-1.411 0-2.637.279-3.683.839a7.314 7.314 0 0 0-2.552 2.333c-.656.972-1.155 2.115-1.495 3.427s-.511 2.722-.511 4.229zm55.926 10.208c0-.753-.219-1.434-.656-2.042s-1.252-1.167-2.443-1.677c-1.167-.535-2.856-1.021-5.068-1.458a39.321 39.321 0 0 1-5.577-1.641c-1.701-.681-3.184-1.495-4.448-2.443-1.24-.948-2.212-2.066-2.917-3.354-.704-1.313-1.057-2.807-1.057-4.484a10.6 10.6 0 0 1 1.057-4.667c.729-1.458 1.763-2.747 3.099-3.865 1.361-1.142 3.015-2.03 4.959-2.661 1.969-.656 4.181-.984 6.636-.984 3.427 0 6.368.547 8.823 1.641 2.479 1.094 4.375 2.601 5.688 4.521 1.336 1.896 2.004 4.059 2.004 6.49h-10.5c0-1.021-.219-1.932-.656-2.734-.413-.826-1.069-1.471-1.968-1.932-.876-.486-2.017-.729-3.428-.729-1.167 0-2.175.207-3.025.62-.851.389-1.507.924-1.969 1.604a3.86 3.86 0 0 0-.656 2.187c0 .608.121 1.155.365 1.641.267.462.692.887 1.276 1.276.583.389 1.336.753 2.26 1.094.948.316 2.115.608 3.5.875 2.844.583 5.384 1.349 7.62 2.297 2.236.924 4.011 2.187 5.323 3.792 1.312 1.58 1.968 3.658 1.968 6.234 0 1.75-.388 3.354-1.167 4.813-.777 1.458-1.895 2.734-3.353 3.828-1.459 1.069-3.208 1.908-5.251 2.516-2.017.583-4.289.875-6.817.875-3.671 0-6.781-.656-9.333-1.969-2.528-1.313-4.448-2.977-5.76-4.995-1.288-2.042-1.932-4.132-1.932-6.271h9.952c.049 1.434.413 2.589 1.095 3.464a5.97 5.97 0 0 0 2.661 1.896c1.093.389 2.272.583 3.536.583 1.361 0 2.492-.182 3.391-.547.9-.389 1.58-.899 2.041-1.531.487-.656.729-1.41.729-2.26zM-73.389 36h-10.573V-6.948c0-2.99.583-5.505 1.75-7.547a11.447 11.447 0 0 1 4.995-4.667c2.163-1.069 4.727-1.604 7.693-1.604.972 0 1.908.073 2.807.219.899.122 1.774.28 2.625.474l-.109 7.911c-.462-.122-.948-.207-1.458-.255s-1.106-.073-1.786-.073c-1.264 0-2.345.219-3.245.656-.875.413-1.543 1.033-2.005 1.859s-.693 1.835-.693 3.026v42.948zm7.875-39.448V3.99h-24.318v-7.438h24.318zm5.321 20.125v-.766c0-2.892.413-5.554 1.24-7.984.826-2.455 2.029-4.582 3.609-6.38s3.524-3.196 5.833-4.193c2.309-1.021 4.958-1.531 7.948-1.531s5.651.51 7.984 1.531c2.333.997 4.29 2.394 5.87 4.193 1.604 1.799 2.819 3.925 3.646 6.38.826 2.431 1.24 5.092 1.24 7.984v.766c0 2.868-.413 5.529-1.24 7.984-.826 2.431-2.042 4.557-3.646 6.38-1.58 1.799-3.524 3.196-5.833 4.193s-4.958 1.495-7.948 1.495-5.651-.498-7.984-1.495c-2.309-.997-4.266-2.394-5.87-4.193-1.58-1.823-2.783-3.95-3.609-6.38-.826-2.455-1.24-5.116-1.24-7.984zm10.5-.766v.766c0 1.653.146 3.196.437 4.63s.753 2.698 1.385 3.792c.656 1.069 1.507 1.908 2.552 2.516s2.321.911 3.828.911c1.458 0 2.71-.304 3.755-.911s1.884-1.446 2.516-2.516c.632-1.094 1.094-2.358 1.385-3.792.316-1.434.474-2.977.474-4.63v-.766c0-1.604-.158-3.111-.474-4.521-.292-1.434-.766-2.698-1.422-3.792-.632-1.118-1.47-1.993-2.516-2.625s-2.309-.948-3.792-.948c-1.483 0-2.747.316-3.792.948-1.021.632-1.859 1.507-2.516 2.625-.632 1.094-1.094 2.358-1.385 3.792-.292 1.41-.437 2.917-.437 4.521zM-4.377 5.156V36h-10.5V-3.448h9.88l.62 8.604zM7.509-3.703l-.182 9.734c-.51-.073-1.13-.134-1.859-.182a18.876 18.876 0 0 0-1.932-.109c-1.483 0-2.771.194-3.865.583-1.069.365-1.969.911-2.698 1.641-.705.729-1.24 1.616-1.604 2.661-.34 1.045-.535 2.236-.583 3.573l-2.115-.656c0-2.552.255-4.898.766-7.036.51-2.163 1.252-4.047 2.224-5.651.997-1.604 2.212-2.844 3.646-3.719s3.075-1.313 4.922-1.313c.583 0 1.179.049 1.786.146.608.073 1.106.182 1.495.328zm34.486-13.38L53.078 7.125l11.083-24.208h11.922l-17.464 33.76V36H47.536V16.677l-17.5-33.76h11.958zm35.692 33.76v-.766c0-2.892.413-5.554 1.24-7.984.826-2.455 2.029-4.582 3.609-6.38s3.524-3.196 5.833-4.193c2.309-1.021 4.958-1.531 7.948-1.531s5.651.51 7.984 1.531c2.333.997 4.29 2.394 5.87 4.193 1.604 1.799 2.819 3.925 3.646 6.38.826 2.431 1.24 5.092 1.24 7.984v.766c0 2.868-.413 5.529-1.24 7.984-.826 2.431-2.042 4.557-3.646 6.38-1.58 1.799-3.524 3.196-5.833 4.193s-4.958 1.495-7.948 1.495-5.651-.498-7.984-1.495c-2.309-.997-4.266-2.394-5.87-4.193-1.58-1.823-2.783-3.95-3.609-6.38-.826-2.455-1.24-5.116-1.24-7.984zm10.5-.766v.766c0 1.653.146 3.196.437 4.63s.753 2.698 1.385 3.792c.656 1.069 1.507 1.908 2.552 2.516s2.321.911 3.828.911c1.458 0 2.71-.304 3.755-.911s1.884-1.446 2.516-2.516c.632-1.094 1.094-2.358 1.385-3.792.316-1.434.474-2.977.474-4.63v-.766c0-1.604-.158-3.111-.474-4.521-.292-1.434-.766-2.698-1.422-3.792-.632-1.118-1.471-1.993-2.516-2.625s-2.309-.948-3.792-.948c-1.483 0-2.747.316-3.792.948-1.021.632-1.859 1.507-2.516 2.625-.632 1.094-1.094 2.358-1.385 3.792-.292 1.41-.437 2.917-.437 4.521zm58.149 10.646V-3.448h10.5V36h-9.88l-.62-9.443zm1.167-8.093 3.099-.073c0 2.625-.303 5.068-.911 7.328-.608 2.236-1.52 4.181-2.735 5.833a12.79 12.79 0 0 1-4.593 3.828c-1.848.899-4.023 1.349-6.527 1.349-1.92 0-3.694-.267-5.323-.802a10.829 10.829 0 0 1-4.156-2.589c-1.142-1.191-2.042-2.71-2.698-4.557-.632-1.871-.948-4.12-.948-6.745V-3.448h10.5v25.557c0 1.167.134 2.151.401 2.953.292.802.693 1.458 1.204 1.969.509.51 1.105.875 1.785 1.094.705.219 1.483.328 2.333.328 2.164 0 3.865-.437 5.105-1.312 1.263-.875 2.151-2.066 2.661-3.573.535-1.531.801-3.233.801-5.104zm29.348-13.308V36h-10.5V-3.448h9.88l.62 8.604zm11.885-8.859-.183 9.734a25.092 25.092 0 0 0-1.859-.182 18.879 18.879 0 0 0-1.933-.109c-1.483 0-2.771.194-3.864.583-1.069.365-1.969.911-2.697 1.641-.705.729-1.24 1.616-1.605 2.661-.34 1.045-.535 2.236-.583 3.573l-2.115-.656c0-2.552.255-4.898.765-7.036.511-2.163 1.252-4.047 2.224-5.651.997-1.604 2.212-2.844 3.647-3.719 1.433-.875 3.075-1.313 4.921-1.313.583 0 1.179.049 1.787.146.608.073 1.105.182 1.495.328zm47.976 16.406h-13.636l-.072-7.51h11.448c2.017 0 3.669-.255 4.957-.766 1.289-.535 2.249-1.3 2.881-2.297.656-1.021.984-2.26.984-3.719 0-1.653-.316-2.99-.948-4.01-.608-1.021-1.568-1.762-2.88-2.224-1.288-.462-2.953-.693-4.995-.693h-7.584V36H215.93v-53.083h18.521c3.087 0 5.845.292 8.276.875 2.455.583 4.533 1.47 6.235 2.661s3.001 2.698 3.9 4.521c.9 1.799 1.349 3.938 1.349 6.417 0 2.188-.499 4.205-1.495 6.052-.972 1.847-2.516 3.354-4.631 4.521-2.089 1.167-4.824 1.811-8.203 1.932l-3.172 2.807zM236.239 36h-16.152l4.267-8.531h11.885c1.92 0 3.487-.304 4.703-.911 1.215-.632 2.115-1.483 2.697-2.552.584-1.069.876-2.297.876-3.682 0-1.556-.268-2.905-.803-4.047-.511-1.142-1.337-2.017-2.479-2.625-1.143-.632-2.649-.948-4.521-.948h-10.536l.072-7.51h13.125l2.516 2.953c3.232-.049 5.833.523 7.801 1.714 1.993 1.167 3.44 2.686 4.339 4.557.924 1.871 1.385 3.877 1.385 6.016 0 3.403-.741 6.271-2.224 8.604-1.483 2.309-3.657 4.047-6.525 5.214-2.844 1.167-6.32 1.75-10.427 1.75zm51.55-9.443V-3.448h10.5V36h-9.881l-.619-9.443zm1.167-8.093 3.099-.073c0 2.625-.304 5.068-.912 7.328-.608 2.236-1.519 4.181-2.735 5.833a12.773 12.773 0 0 1-4.593 3.828c-1.847.899-4.023 1.349-6.525 1.349-1.921 0-3.695-.267-5.324-.802a10.836 10.836 0 0 1-4.156-2.589c-1.143-1.191-2.041-2.71-2.697-4.557-.632-1.871-.948-4.12-.948-6.745V-3.448h10.5v25.557c0 1.167.133 2.151.401 2.953.291.802.692 1.458 1.203 1.969s1.105.875 1.787 1.094c.704.219 1.483.328 2.333.328 2.163 0 3.864-.437 5.104-1.312 1.264-.875 2.151-2.066 2.661-3.573.535-1.531.803-3.233.803-5.104zm40.175 6.635c0-.753-.219-1.434-.656-2.042s-1.252-1.167-2.443-1.677c-1.167-.535-2.856-1.021-5.068-1.458a39.321 39.321 0 0 1-5.577-1.641c-1.701-.681-3.184-1.495-4.448-2.443-1.24-.948-2.212-2.066-2.917-3.354-.704-1.313-1.057-2.807-1.057-4.484a10.6 10.6 0 0 1 1.057-4.667c.729-1.458 1.763-2.747 3.099-3.865 1.361-1.142 3.015-2.03 4.959-2.661 1.969-.656 4.181-.984 6.636-.984 3.427 0 6.368.547 8.823 1.641 2.479 1.094 4.375 2.601 5.688 4.521 1.336 1.896 2.004 4.059 2.004 6.49h-10.5c0-1.021-.219-1.932-.656-2.734-.413-.826-1.069-1.47-1.968-1.932-.876-.486-2.017-.729-3.428-.729-1.167 0-2.175.207-3.025.62-.851.389-1.507.924-1.969 1.604a3.86 3.86 0 0 0-.656 2.188c0 .608.121 1.155.365 1.641.267.462.692.887 1.276 1.276.583.389 1.336.753 2.26 1.094.948.316 2.115.608 3.5.875 2.844.583 5.384 1.349 7.62 2.297 2.236.924 4.011 2.187 5.323 3.792 1.312 1.58 1.969 3.658 1.969 6.234 0 1.75-.389 3.354-1.167 4.813-.779 1.458-1.896 2.734-3.355 3.828-1.459 1.069-3.208 1.908-5.251 2.516-2.017.583-4.289.875-6.817.875-3.669 0-6.781-.656-9.333-1.969-2.528-1.313-4.448-2.977-5.76-4.995-1.288-2.042-1.932-4.132-1.932-6.271h9.952c.049 1.434.413 2.589 1.095 3.464a5.97 5.97 0 0 0 2.661 1.896c1.093.389 2.272.583 3.536.583 1.361 0 2.492-.182 3.391-.547.9-.389 1.58-.899 2.041-1.531.487-.656.729-1.41.729-2.26zm29.602-28.547V36h-10.536V-3.448h10.536zm-11.192-10.281c0-1.531.535-2.795 1.604-3.792s2.503-1.495 4.301-1.495c1.775 0 3.197.498 4.267 1.495 1.093.997 1.64 2.26 1.64 3.792s-.547 2.795-1.64 3.792c-1.069.997-2.492 1.495-4.267 1.495-1.799 0-3.232-.498-4.301-1.495s-1.604-2.26-1.604-3.792zm31.644 18.703V36h-10.5V-3.448h9.844l.656 8.422zm-1.53 9.917h-2.844c0-2.917.376-5.542 1.129-7.875.755-2.358 1.812-4.363 3.172-6.016 1.361-1.677 2.977-2.953 4.849-3.828 1.896-.899 4.011-1.349 6.344-1.349 1.847 0 3.536.267 5.068.802a9.698 9.698 0 0 1 3.937 2.552c1.117 1.167 1.968 2.71 2.552 4.63.608 1.92.911 4.266.911 7.036v25.156h-10.572V10.806c0-1.75-.244-3.111-.729-4.083-.487-.972-1.203-1.653-2.151-2.042-.924-.413-2.067-.62-3.428-.62-1.409 0-2.637.279-3.681.839a7.314 7.314 0 0 0-2.552 2.333c-.657.972-1.155 2.115-1.496 3.427-.34 1.313-.509 2.722-.509 4.229zm52.753 21.838c-3.063 0-5.809-.486-8.24-1.458-2.431-.997-4.496-2.37-6.197-4.12a18.323 18.323 0 0 1-3.865-6.089c-.899-2.333-1.348-4.813-1.348-7.437v-1.458c0-2.99.425-5.724 1.276-8.203s2.065-4.63 3.645-6.453c1.604-1.823 3.548-3.22 5.833-4.193 2.285-.997 4.861-1.495 7.729-1.495 2.795 0 5.275.462 7.437 1.385s3.975 2.236 5.432 3.938c1.483 1.701 2.601 3.743 3.355 6.125.753 2.358 1.131 4.983 1.131 7.875v4.375h-31.355v-7h21.036v-.802c0-1.458-.267-2.759-.801-3.901-.511-1.167-1.288-2.09-2.333-2.771s-2.383-1.021-4.011-1.021c-1.385 0-2.576.304-3.573.911-.996.608-1.811 1.458-2.443 2.552-.608 1.094-1.069 2.382-1.385 3.865-.292 1.458-.437 3.063-.437 4.812v1.458c0 1.58.219 3.038.656 4.375.463 1.337 1.107 2.491 1.932 3.464a8.817 8.817 0 0 0 3.063 2.26c1.216.535 2.589.802 4.12.802 1.896 0 3.659-.365 5.287-1.094 1.653-.753 3.075-1.884 4.265-3.391l5.104 5.542c-.827 1.191-1.956 2.333-3.391 3.427-1.409 1.094-3.111 1.993-5.104 2.698-1.993.681-4.265 1.021-6.817 1.021zm44.988-11.63c0-.753-.219-1.434-.656-2.042s-1.252-1.167-2.443-1.677c-1.167-.535-2.856-1.021-5.068-1.458a39.428 39.428 0 0 1-5.579-1.641c-1.701-.681-3.184-1.495-4.448-2.443-1.239-.948-2.211-2.066-2.916-3.354-.705-1.313-1.057-2.807-1.057-4.484 0-1.653.352-3.208 1.057-4.667.729-1.458 1.763-2.747 3.099-3.865 1.361-1.142 3.015-2.03 4.959-2.661 1.968-.656 4.18-.984 6.635-.984 3.428 0 6.369.547 8.824 1.641 2.479 1.094 4.375 2.601 5.687 4.521 1.337 1.896 2.005 4.059 2.005 6.49h-10.5c0-1.021-.219-1.932-.656-2.734-.413-.826-1.069-1.47-1.969-1.932-.875-.486-2.017-.729-3.427-.729-1.167 0-2.175.207-3.025.62-.851.389-1.508.924-1.969 1.604a3.86 3.86 0 0 0-.656 2.188c0 .608.121 1.155.364 1.641.268.462.693.887 1.276 1.276.584.389 1.337.753 2.261 1.094.948.316 2.115.608 3.5.875 2.843.583 5.383 1.349 7.619 2.297 2.237.924 4.011 2.187 5.324 3.792 1.312 1.58 1.968 3.658 1.968 6.234 0 1.75-.388 3.354-1.167 4.813-.777 1.458-1.896 2.734-3.353 3.828-1.459 1.069-3.209 1.908-5.251 2.516-2.017.583-4.289.875-6.817.875-3.671 0-6.781-.656-9.333-1.969-2.528-1.313-4.448-2.977-5.76-4.995-1.289-2.042-1.933-4.132-1.933-6.271h9.953c.049 1.434.413 2.589 1.093 3.464a5.971 5.971 0 0 0 2.663 1.896c1.093.389 2.272.583 3.536.583 1.361 0 2.491-.182 3.391-.547.899-.389 1.58-.899 2.041-1.531.487-.656.729-1.41.729-2.26zm39.848 0c0-.753-.219-1.434-.657-2.042-.437-.608-1.251-1.167-2.443-1.677-1.167-.535-2.855-1.021-5.067-1.458a39.389 39.389 0 0 1-5.579-1.641c-1.701-.681-3.184-1.495-4.448-2.443-1.24-.948-2.212-2.066-2.916-3.354-.705-1.313-1.057-2.807-1.057-4.484 0-1.653.352-3.208 1.057-4.667.729-1.458 1.761-2.747 3.099-3.865 1.361-1.142 3.013-2.03 4.959-2.661 1.968-.656 4.18-.984 6.635-.984 3.427 0 6.368.547 8.823 1.641 2.48 1.094 4.376 2.601 5.688 4.521 1.337 1.896 2.005 4.059 2.005 6.49h-10.5c0-1.021-.219-1.932-.656-2.734-.413-.826-1.069-1.47-1.969-1.932-.875-.486-2.017-.729-3.427-.729-1.167 0-2.176.207-3.027.62-.851.389-1.507.924-1.968 1.604a3.86 3.86 0 0 0-.656 2.188c0 .608.121 1.155.364 1.641.268.462.693.887 1.276 1.276.584.389 1.337.753 2.26 1.094.948.316 2.115.608 3.5.875 2.844.583 5.384 1.349 7.62 2.297 2.236.924 4.011 2.187 5.323 3.792 1.313 1.58 1.969 3.658 1.969 6.234 0 1.75-.389 3.354-1.167 4.813s-1.896 2.734-3.355 3.828c-1.457 1.069-3.208 1.908-5.249 2.516-2.017.583-4.291.875-6.817.875-3.671 0-6.781-.656-9.333-1.969-2.528-1.313-4.448-2.977-5.761-4.995-1.288-2.042-1.932-4.132-1.932-6.271h9.953c.048 1.434.413 2.589 1.093 3.464a5.976 5.976 0 0 0 2.661 1.896c1.095.389 2.273.583 3.537.583 1.36 0 2.491-.182 3.391-.547.899-.389 1.579-.899 2.041-1.531.485-.656.729-1.41.729-2.26z" style="fill:var(--color2, #fff)"/><path fill="#2e2f42" d="M-741.333-466.667h1920v901.333h-1920v-901.333z" opacity=".4" style="fill:var(--color4, #2e2f42)"/><path fill="#fcfcfc" d="M-48-360h533.333a5.333 5.333 0 0 1 5.333 5.333v768a5.333 5.333 0 0 1-5.333 5.333H-48a5.333 5.333 0 0 1-5.333-5.333v-768A5.333 5.333 0 0 1-48-360z" style="fill:var(--color5, #fcfcfc)"/><path fill="none" stroke="#2e2f42" stroke-width="1.333" d="M-16-10h469.333A4.667 4.667 0 0 1 458-5.333v42.667a4.667 4.667 0 0 1-4.667 4.667H-16a4.667 4.667 0 0 1-4.667-4.667V-5.333A4.667 4.667 0 0 1-16-10z" style="stroke:var(--color4, #2e2f42)"/><path fill="#2e2f42" d="M20 8H4c-1.1 0-1.99.9-1.99 2L2 22c0 1.1.9 2 2 2h16c1.1 0 2-.9 2-2V10c0-1.1-.9-2-2-2zm-.4 4.25-7.07 4.42c-.32.2-.74.2-1.06 0L4.4 12.25a.85.85 0 1 1 .9-1.44L12 15l6.7-4.19a.85.85 0 1 1 .9 1.44z" style="fill:var(--color4, #2e2f42)"/></symbol>

<symbol id="icon-modal-phone" viewBox="0 0 24 32"><path fill="#e5e5e5" d="M0 0h24v32H0V0z" style="fill:var(--color1, #e5e5e5)"/><path fill="#fff" d="M-741.333-378.667h1920v896h-1920v-896z" style="fill:var(--color2, #fff)"/><path d="M-741.333-282.667h1920v800h-1920v-800z" style="fill:var(--color3, #000)"/><path fill="#2e2f42" d="M-741.333-282.667h1920v800h-1920v-800z" opacity=".7" style="fill:var(--color4, #2e2f42)"/><path fill="#fff" d="M-70.289 35.469V44h-28.255v-8.531h28.255zM-94.971-9.083V44h-10.938V-9.083h10.938zm21 21.619v8.312h-24.573v-8.312h24.573zm3.646-21.619v8.568h-28.219v-8.568h28.219zM-50.348 44h-10.573V1.052c0-2.99.583-5.505 1.75-7.547a11.442 11.442 0 0 1 4.995-4.667c2.163-1.069 4.727-1.604 7.693-1.604.972 0 1.908.073 2.807.219.899.122 1.774.28 2.625.474l-.109 7.911c-.462-.122-.948-.207-1.458-.255s-1.106-.073-1.787-.073c-1.264 0-2.345.219-3.245.656-.875.413-1.543 1.033-2.005 1.859s-.693 1.835-.693 3.026v42.948zm7.875-39.448v7.438h-24.318V4.552h24.318zM-22.094 44h-10.573V1.052c0-2.99.583-5.505 1.75-7.547a11.442 11.442 0 0 1 4.995-4.667c2.163-1.069 4.727-1.604 7.693-1.604.972 0 1.908.073 2.807.219.899.122 1.774.28 2.625.474l-.109 7.911c-.462-.122-.948-.207-1.458-.255s-1.106-.073-1.786-.073c-1.264 0-2.346.219-3.245.656-.875.413-1.543 1.033-2.005 1.859s-.693 1.835-.693 3.026v42.948zm7.875-39.448v7.438h-24.318V4.552h24.318zm24.28 40.177c-3.063 0-5.809-.486-8.24-1.458-2.431-.997-4.497-2.37-6.198-4.12a18.323 18.323 0 0 1-3.865-6.089c-.899-2.333-1.349-4.813-1.349-7.437v-1.458c0-2.99.425-5.724 1.276-8.203s2.066-4.63 3.646-6.453c1.604-1.823 3.549-3.22 5.833-4.193 2.285-.997 4.861-1.495 7.729-1.495 2.795 0 5.274.462 7.437 1.385s3.974 2.236 5.432 3.937c1.483 1.701 2.601 3.743 3.354 6.125.753 2.358 1.13 4.983 1.13 7.875v4.375H-5.108v-7h21.037v-.802c0-1.458-.267-2.759-.802-3.901-.51-1.167-1.288-2.09-2.333-2.771s-2.382-1.021-4.01-1.021c-1.385 0-2.576.304-3.573.911S3.4 14.394 2.768 15.488c-.608 1.094-1.069 2.382-1.385 3.865-.292 1.458-.438 3.063-.438 4.813v1.458c0 1.58.219 3.038.656 4.375.462 1.337 1.106 2.491 1.932 3.464a8.817 8.817 0 0 0 3.063 2.26c1.215.535 2.589.802 4.12.802 1.896 0 3.658-.365 5.287-1.094 1.653-.753 3.075-1.884 4.266-3.391l5.104 5.542c-.826 1.191-1.957 2.333-3.391 3.427-1.41 1.094-3.111 1.993-5.104 2.698-1.993.681-4.266 1.021-6.818 1.021zm39.957-8.203c1.288 0 2.431-.243 3.427-.729.997-.511 1.774-1.215 2.333-2.115.583-.924.887-2.005.911-3.245h9.88c-.024 2.771-.766 5.238-2.224 7.401-1.458 2.139-3.415 3.828-5.87 5.068-2.455 1.215-5.201 1.823-8.24 1.823-3.062 0-5.736-.51-8.021-1.531-2.26-1.021-4.144-2.431-5.651-4.229-1.507-1.823-2.637-3.938-3.391-6.344-.753-2.431-1.13-5.031-1.13-7.802v-1.057c0-2.795.377-5.396 1.13-7.802.753-2.431 1.884-4.545 3.391-6.344 1.507-1.823 3.391-3.245 5.651-4.266s4.91-1.531 7.948-1.531c3.233 0 6.064.62 8.495 1.859 2.455 1.24 4.375 3.014 5.76 5.323 1.41 2.285 2.127 4.995 2.151 8.13h-9.88c-.024-1.313-.304-2.503-.839-3.573a6.05 6.05 0 0 0-2.26-2.552c-.972-.656-2.175-.984-3.609-.984-1.531 0-2.783.328-3.755.984-.972.632-1.726 1.507-2.26 2.625-.535 1.094-.911 2.345-1.13 3.755a31.392 31.392 0 0 0-.292 4.375v1.057c0 1.531.097 3.002.292 4.411s.559 2.661 1.094 3.755c.559 1.094 1.325 1.957 2.297 2.589s2.236.948 3.792.948zM93.475 4.552v7.438H70.506V4.552h22.969zM76.193-5.182h10.5v37.297c0 1.142.146 2.017.437 2.625.316.608.778 1.033 1.385 1.276.608.219 1.373.328 2.297.328.656 0 1.24-.024 1.75-.073.535-.073.984-.146 1.349-.219l.036 7.729c-.899.292-1.871.523-2.917.693s-2.2.255-3.463.255c-2.309 0-4.326-.377-6.052-1.13-1.701-.778-3.014-2.017-3.937-3.719s-1.385-3.938-1.385-6.708V-5.182zm35.837 9.734V44h-10.536V4.552h10.536zM100.838-5.729c0-1.531.535-2.795 1.604-3.792s2.503-1.495 4.302-1.495c1.774 0 3.196.498 4.266 1.495 1.094.997 1.641 2.26 1.641 3.792s-.547 2.795-1.641 3.792c-1.069.997-2.491 1.495-4.266 1.495-1.799 0-3.233-.498-4.302-1.495s-1.604-2.26-1.604-3.792zm34.779 42.073 8.751-31.792h10.973L142.034 44h-6.636l.219-7.656zm-6.015-31.792 8.786 31.828.183 7.62h-6.672L118.592 4.552h11.01zm49.582 40.177c-3.063 0-5.809-.486-8.24-1.458-2.431-.997-4.496-2.37-6.197-4.12a18.323 18.323 0 0 1-3.865-6.089c-.899-2.333-1.348-4.813-1.348-7.437v-1.458c0-2.99.425-5.724 1.276-8.203s2.065-4.63 3.645-6.453c1.604-1.823 3.548-3.22 5.833-4.193 2.284-.997 4.861-1.495 7.729-1.495 2.795 0 5.275.462 7.437 1.385s3.973 2.236 5.432 3.937c1.483 1.701 2.601 3.743 3.355 6.125.753 2.358 1.129 4.983 1.129 7.875v4.375h-31.353v-7h21.036v-.802c0-1.458-.267-2.759-.801-3.901a6.203 6.203 0 0 0-2.333-2.771c-1.045-.681-2.383-1.021-4.011-1.021-1.385 0-2.577.304-3.573.911s-1.811 1.458-2.443 2.552c-.608 1.094-1.069 2.382-1.385 3.865-.292 1.458-.437 3.063-.437 4.813v1.458c0 1.58.219 3.038.656 4.375.461 1.337 1.105 2.491 1.932 3.464a8.817 8.817 0 0 0 3.063 2.26c1.216.535 2.589.802 4.12.802 1.896 0 3.657-.365 5.287-1.094 1.652-.753 3.075-1.884 4.265-3.391l5.104 5.542c-.827 1.191-1.956 2.333-3.391 3.427-1.409 1.094-3.111 1.993-5.104 2.698-1.993.681-4.265 1.021-6.817 1.021zm72.039-14.62c0-.948-.147-1.799-.437-2.552-.268-.778-.779-1.483-1.532-2.115-.753-.656-1.811-1.3-3.172-1.932-1.36-.632-3.123-1.288-5.285-1.969a66.943 66.943 0 0 1-6.855-2.625c-2.139-.972-4.035-2.102-5.688-3.391-1.628-1.312-2.916-2.832-3.864-4.557-.924-1.726-1.385-3.731-1.385-6.016 0-2.212.485-4.217 1.459-6.016.972-1.823 2.333-3.378 4.083-4.667 1.751-1.313 3.816-2.321 6.197-3.026 2.407-.705 5.044-1.057 7.912-1.057 3.913 0 7.328.705 10.245 2.115 2.916 1.41 5.176 3.342 6.781 5.797 1.628 2.455 2.443 5.262 2.443 8.422H251.26c0-1.556-.328-2.917-.984-4.083-.632-1.191-1.604-2.127-2.917-2.807-1.288-.681-2.916-1.021-4.885-1.021-1.896 0-3.475.292-4.739.875-1.264.559-2.212 1.325-2.844 2.297-.632.948-.948 2.017-.948 3.208 0 .899.219 1.714.656 2.443.461.729 1.143 1.41 2.041 2.042.9.632 2.005 1.227 3.319 1.786 1.312.559 2.831 1.106 4.557 1.641 2.892.875 5.432 1.859 7.619 2.953 2.212 1.094 4.06 2.321 5.543 3.682s2.6 2.905 3.353 4.63 1.131 3.682 1.131 5.87c0 2.309-.449 4.375-1.349 6.198-.899 1.823-2.199 3.366-3.901 4.63-1.701 1.264-3.731 2.224-6.088 2.88s-4.995.984-7.912.984c-2.624 0-5.213-.34-7.765-1.021-2.552-.705-4.873-1.762-6.963-3.172-2.067-1.41-3.719-3.208-4.959-5.396s-1.86-4.776-1.86-7.766h10.975c0 1.653.255 3.05.765 4.193s1.228 2.066 2.151 2.771c.948.705 2.067 1.215 3.355 1.531 1.312.316 2.747.474 4.301.474 1.896 0 3.452-.267 4.667-.802 1.24-.535 2.152-1.276 2.735-2.224.608-.948.912-2.017.912-3.208zm17.534-5.432v-.766c0-2.892.413-5.554 1.24-7.984.827-2.455 2.029-4.582 3.609-6.38s3.524-3.196 5.833-4.193c2.309-1.021 4.959-1.531 7.948-1.531s5.651.51 7.984 1.531c2.333.997 4.291 2.394 5.869 4.193 1.605 1.799 2.82 3.925 3.647 6.38.827 2.431 1.239 5.092 1.239 7.984v.766c0 2.868-.412 5.529-1.239 7.984-.827 2.431-2.041 4.557-3.647 6.38-1.579 1.799-3.524 3.196-5.833 4.193-2.308.997-4.957 1.495-7.948 1.495-2.989 0-5.651-.498-7.984-1.495-2.309-.997-4.265-2.394-5.869-4.193-1.58-1.823-2.783-3.95-3.609-6.38-.827-2.455-1.24-5.116-1.24-7.984zm10.5-.766v.766c0 1.653.145 3.196.437 4.63s.753 2.698 1.385 3.792a7.239 7.239 0 0 0 2.552 2.516c1.045.608 2.321.911 3.828.911 1.459 0 2.711-.304 3.756-.911s1.884-1.446 2.516-2.516c.632-1.094 1.093-2.358 1.385-3.792.316-1.434.473-2.977.473-4.63v-.766c0-1.604-.157-3.111-.473-4.521-.292-1.434-.767-2.698-1.423-3.792-.632-1.118-1.471-1.993-2.515-2.625-1.045-.632-2.309-.948-3.792-.948s-2.747.316-3.792.948c-1.021.632-1.86 1.507-2.516 2.625-.632 1.094-1.093 2.358-1.385 3.792-.292 1.41-.437 2.917-.437 4.521zM325.157-12v56H314.62v-56h10.537zm33.504 46.557V4.552h10.5V44h-9.881l-.619-9.443zm1.167-8.093 3.099-.073c0 2.625-.304 5.068-.912 7.328-.607 2.236-1.519 4.181-2.735 5.833a12.773 12.773 0 0 1-4.593 3.828c-1.847.899-4.023 1.349-6.525 1.349-1.92 0-3.695-.267-5.324-.802a10.836 10.836 0 0 1-4.156-2.589c-1.143-1.191-2.041-2.71-2.697-4.557-.632-1.871-.948-4.12-.948-6.745V4.552h10.5v25.557c0 1.167.133 2.151.401 2.953.291.802.692 1.458 1.203 1.969s1.105.875 1.787 1.094c.704.219 1.483.328 2.333.328 2.163 0 3.864-.437 5.104-1.312 1.264-.875 2.151-2.066 2.661-3.573.535-1.531.803-3.233.803-5.104zm38.169-21.912v7.438h-22.968V4.552h22.968zm-17.281-9.734h10.5v37.297c0 1.142.147 2.017.439 2.625.316.608.777 1.033 1.385 1.276.607.219 1.373.328 2.296.328.657 0 1.24-.024 1.751-.073.535-.073.984-.146 1.349-.219l.036 7.729c-.9.292-1.872.523-2.917.693-1.044.17-2.199.255-3.463.255-2.309 0-4.327-.377-6.052-1.13-1.701-.778-3.015-2.017-3.937-3.719-.924-1.701-1.387-3.938-1.387-6.708V-5.182zm35.837 9.734V44h-10.536V4.552h10.536zM405.361-5.729c0-1.531.535-2.795 1.604-3.792s2.503-1.495 4.301-1.495c1.775 0 3.197.498 4.267 1.495 1.093.997 1.64 2.26 1.64 3.792s-.547 2.795-1.64 3.792c-1.069.997-2.492 1.495-4.267 1.495-1.799 0-3.232-.498-4.301-1.495s-1.604-2.26-1.604-3.792zm19.686 30.406v-.766c0-2.892.413-5.554 1.24-7.984.827-2.455 2.029-4.582 3.609-6.38s3.524-3.196 5.833-4.193c2.309-1.021 4.959-1.531 7.948-1.531s5.651.51 7.984 1.531c2.333.997 4.291 2.394 5.871 4.193 1.604 1.799 2.819 3.925 3.645 6.38.827 2.431 1.24 5.092 1.24 7.984v.766c0 2.868-.413 5.529-1.24 7.984-.827 2.431-2.041 4.557-3.645 6.38-1.58 1.799-3.525 3.196-5.833 4.193-2.309.997-4.959 1.495-7.948 1.495-2.991 0-5.652-.498-7.985-1.495-2.308-.997-4.265-2.394-5.869-4.193-1.58-1.823-2.783-3.95-3.609-6.38-.827-2.455-1.24-5.116-1.24-7.984zm10.5-.766v.766c0 1.653.147 3.196.437 4.63.292 1.434.755 2.698 1.387 3.792a7.23 7.23 0 0 0 2.552 2.516c1.044.608 2.32.911 3.828.911 1.457 0 2.709-.304 3.755-.911s1.884-1.446 2.516-2.516c.632-1.094 1.093-2.358 1.385-3.792.316-1.434.473-2.977.473-4.63v-.766c0-1.604-.157-3.111-.473-4.521-.292-1.434-.765-2.698-1.423-3.792-.631-1.118-1.469-1.993-2.515-2.625s-2.309-.948-3.792-.948-2.747.316-3.792.948c-1.02.632-1.859 1.507-2.515 2.625-.632 1.094-1.095 2.358-1.387 3.792a22.346 22.346 0 0 0-.437 4.521zm45.097-10.937V44h-10.5V4.552h9.844l.656 8.422zm-1.531 9.917h-2.844c0-2.917.377-5.542 1.131-7.875.753-2.358 1.811-4.363 3.172-6.016 1.361-1.677 2.977-2.953 4.848-3.828 1.896-.899 4.011-1.349 6.344-1.349 1.848 0 3.537.267 5.068.802a9.684 9.684 0 0 1 3.937 2.552c1.119 1.167 1.969 2.71 2.552 4.63.608 1.92.912 4.266.912 7.036v25.156H493.66V18.806c0-1.75-.243-3.111-.729-4.083-.485-.972-1.203-1.653-2.151-2.042-.924-.413-2.065-.62-3.427-.62-1.411 0-2.637.28-3.683.839a7.314 7.314 0 0 0-2.552 2.333c-.656.972-1.155 2.115-1.495 3.427s-.511 2.722-.511 4.229zm55.926 10.208c0-.753-.219-1.434-.656-2.042s-1.252-1.167-2.443-1.677c-1.167-.535-2.856-1.021-5.068-1.458a39.321 39.321 0 0 1-5.577-1.641c-1.701-.681-3.184-1.495-4.448-2.443-1.24-.948-2.212-2.066-2.917-3.354-.704-1.313-1.057-2.807-1.057-4.484a10.6 10.6 0 0 1 1.057-4.667c.729-1.458 1.763-2.747 3.099-3.865 1.361-1.142 3.015-2.029 4.959-2.661 1.969-.656 4.181-.984 6.636-.984 3.427 0 6.368.547 8.823 1.641 2.479 1.094 4.375 2.601 5.688 4.521 1.336 1.896 2.004 4.059 2.004 6.49h-10.5c0-1.021-.219-1.932-.656-2.734-.413-.826-1.069-1.47-1.968-1.932-.876-.486-2.017-.729-3.428-.729-1.167 0-2.175.207-3.025.62-.851.389-1.507.924-1.969 1.604a3.86 3.86 0 0 0-.656 2.188c0 .608.121 1.155.365 1.641.267.462.692.887 1.276 1.276.583.389 1.336.753 2.26 1.094.948.316 2.115.608 3.5.875 2.844.583 5.384 1.349 7.62 2.297 2.236.924 4.011 2.187 5.323 3.792 1.312 1.58 1.968 3.658 1.968 6.234 0 1.75-.388 3.354-1.167 4.813-.777 1.458-1.895 2.734-3.353 3.828-1.459 1.069-3.208 1.908-5.251 2.516-2.017.583-4.289.875-6.817.875-3.671 0-6.781-.656-9.333-1.969-2.528-1.313-4.448-2.977-5.76-4.995-1.288-2.042-1.932-4.132-1.932-6.271h9.952c.049 1.434.413 2.589 1.095 3.464a5.97 5.97 0 0 0 2.661 1.896c1.093.389 2.272.583 3.536.583 1.361 0 2.492-.182 3.391-.547.9-.389 1.58-.899 2.041-1.531.487-.656.729-1.41.729-2.26zM-73.389 124h-10.573V81.052c0-2.99.583-5.505 1.75-7.547a11.447 11.447 0 0 1 4.995-4.667c2.163-1.069 4.727-1.604 7.693-1.604.972 0 1.908.073 2.807.219.899.122 1.774.28 2.625.474l-.109 7.911c-.462-.121-.948-.207-1.458-.255s-1.106-.073-1.786-.073c-1.264 0-2.345.219-3.245.656-.875.413-1.543 1.033-2.005 1.859s-.693 1.835-.693 3.026v42.948zm7.875-39.448v7.437h-24.318v-7.437h24.318zm5.321 20.125v-.766c0-2.892.413-5.554 1.24-7.984.826-2.455 2.029-4.582 3.609-6.38s3.524-3.196 5.833-4.193c2.309-1.021 4.958-1.531 7.948-1.531s5.651.51 7.984 1.531c2.333.997 4.29 2.394 5.87 4.193 1.604 1.799 2.819 3.925 3.646 6.38.826 2.431 1.24 5.092 1.24 7.984v.766c0 2.868-.413 5.529-1.24 7.984-.826 2.431-2.042 4.557-3.646 6.38-1.58 1.799-3.524 3.196-5.833 4.193s-4.958 1.495-7.948 1.495-5.651-.498-7.984-1.495c-2.309-.997-4.266-2.394-5.87-4.193-1.58-1.823-2.783-3.95-3.609-6.38-.826-2.455-1.24-5.116-1.24-7.984zm10.5-.766v.766c0 1.653.146 3.196.437 4.63s.753 2.698 1.385 3.792c.656 1.069 1.507 1.908 2.552 2.516s2.321.911 3.828.911c1.458 0 2.71-.304 3.755-.911s1.884-1.446 2.516-2.516c.632-1.094 1.094-2.358 1.385-3.792.316-1.434.474-2.977.474-4.63v-.766c0-1.604-.158-3.111-.474-4.521-.292-1.434-.766-2.698-1.422-3.792-.632-1.118-1.47-1.993-2.516-2.625s-2.309-.948-3.792-.948c-1.483 0-2.747.316-3.792.948-1.021.632-1.859 1.507-2.516 2.625-.632 1.094-1.094 2.358-1.385 3.792-.292 1.41-.437 2.917-.437 4.521zm45.316-10.755V124h-10.5V84.552h9.88l.62 8.604zm11.886-8.859-.182 9.734c-.51-.073-1.13-.134-1.859-.182a18.876 18.876 0 0 0-1.932-.109c-1.483 0-2.771.194-3.865.583-1.069.365-1.969.911-2.698 1.641-.705.729-1.24 1.616-1.604 2.661-.34 1.045-.535 2.236-.583 3.573l-2.115-.656c0-2.552.255-4.897.766-7.036.51-2.163 1.252-4.047 2.224-5.651.997-1.604 2.212-2.844 3.646-3.719s3.075-1.313 4.922-1.313c.583 0 1.179.049 1.786.146.608.073 1.106.182 1.495.328zm34.486-13.38 11.083 24.208 11.083-24.208h11.922l-17.464 33.76V124H47.536v-19.323l-17.5-33.76h11.958zm35.692 33.76v-.766c0-2.892.413-5.554 1.24-7.984.826-2.455 2.029-4.582 3.609-6.38s3.524-3.196 5.833-4.193c2.309-1.021 4.958-1.531 7.948-1.531s5.651.51 7.984 1.531c2.333.997 4.29 2.394 5.87 4.193 1.604 1.799 2.819 3.925 3.646 6.38.826 2.431 1.24 5.092 1.24 7.984v.766c0 2.868-.413 5.529-1.24 7.984-.826 2.431-2.042 4.557-3.646 6.38-1.58 1.799-3.524 3.196-5.833 4.193s-4.958 1.495-7.948 1.495-5.651-.498-7.984-1.495c-2.309-.997-4.266-2.394-5.87-4.193-1.58-1.823-2.783-3.95-3.609-6.38-.826-2.455-1.24-5.116-1.24-7.984zm10.5-.766v.766c0 1.653.146 3.196.437 4.63s.753 2.698 1.385 3.792c.656 1.069 1.507 1.908 2.552 2.516s2.321.911 3.828.911c1.458 0 2.71-.304 3.755-.911s1.884-1.446 2.516-2.516c.632-1.094 1.094-2.358 1.385-3.792.316-1.434.474-2.977.474-4.63v-.766c0-1.604-.158-3.111-.474-4.521-.292-1.434-.766-2.698-1.422-3.792-.632-1.118-1.471-1.993-2.516-2.625s-2.309-.948-3.792-.948c-1.483 0-2.747.316-3.792.948-1.021.632-1.859 1.507-2.516 2.625-.632 1.094-1.094 2.358-1.385 3.792-.292 1.41-.437 2.917-.437 4.521zm58.149 10.646V84.552h10.5V124h-9.88l-.62-9.443zm1.167-8.093 3.099-.073c0 2.625-.303 5.068-.911 7.328-.608 2.236-1.52 4.181-2.735 5.833a12.79 12.79 0 0 1-4.593 3.828c-1.848.899-4.023 1.349-6.527 1.349-1.92 0-3.694-.267-5.323-.802a10.829 10.829 0 0 1-4.156-2.589c-1.142-1.191-2.042-2.71-2.698-4.557-.632-1.871-.948-4.12-.948-6.745V84.552h10.5v25.557c0 1.167.134 2.151.401 2.953.292.802.693 1.458 1.204 1.969.509.51 1.105.875 1.785 1.094.705.219 1.483.328 2.333.328 2.164 0 3.865-.437 5.105-1.312 1.263-.875 2.151-2.066 2.661-3.573.535-1.531.801-3.233.801-5.104zm29.348-13.308V124h-10.5V84.552h9.88l.62 8.604zm11.885-8.859-.183 9.734a25.092 25.092 0 0 0-1.859-.182 18.879 18.879 0 0 0-1.933-.109c-1.483 0-2.771.194-3.864.583-1.069.365-1.969.911-2.697 1.641-.705.729-1.24 1.616-1.605 2.661-.34 1.045-.535 2.236-.583 3.573l-2.115-.656c0-2.552.255-4.897.765-7.036.511-2.163 1.252-4.047 2.224-5.651.997-1.604 2.212-2.844 3.647-3.719 1.433-.875 3.075-1.313 4.921-1.313.583 0 1.179.049 1.787.146.608.073 1.105.182 1.495.328zm47.976 16.406h-13.636l-.072-7.51h11.448c2.017 0 3.669-.255 4.957-.766 1.289-.535 2.249-1.3 2.881-2.297.656-1.021.984-2.261.984-3.719 0-1.653-.316-2.99-.948-4.01-.608-1.021-1.568-1.762-2.88-2.224-1.288-.462-2.953-.693-4.995-.693h-7.584V124H215.93V70.917h18.521c3.087 0 5.845.292 8.276.875 2.455.583 4.533 1.47 6.235 2.661s3.001 2.698 3.9 4.521c.9 1.799 1.349 3.937 1.349 6.417 0 2.187-.499 4.205-1.495 6.052-.972 1.847-2.516 3.354-4.631 4.521-2.089 1.167-4.824 1.811-8.203 1.932l-3.172 2.807zM236.239 124h-16.152l4.267-8.531h11.885c1.92 0 3.487-.304 4.703-.911 1.215-.632 2.115-1.483 2.697-2.552.584-1.069.876-2.297.876-3.682 0-1.556-.268-2.905-.803-4.047-.511-1.142-1.337-2.017-2.479-2.625-1.143-.632-2.649-.948-4.521-.948h-10.536l.072-7.51h13.125l2.516 2.953c3.232-.049 5.833.523 7.801 1.713 1.993 1.167 3.44 2.686 4.339 4.557.924 1.871 1.385 3.877 1.385 6.016 0 3.403-.741 6.271-2.224 8.604-1.483 2.309-3.657 4.047-6.525 5.214-2.844 1.167-6.32 1.75-10.427 1.75zm51.55-9.443V84.552h10.5V124h-9.881l-.619-9.443zm1.167-8.093 3.099-.073c0 2.625-.304 5.068-.912 7.328-.608 2.236-1.519 4.181-2.735 5.833a12.773 12.773 0 0 1-4.593 3.828c-1.847.899-4.023 1.349-6.525 1.349-1.921 0-3.695-.267-5.324-.802a10.836 10.836 0 0 1-4.156-2.589c-1.143-1.191-2.041-2.71-2.697-4.557-.632-1.871-.948-4.12-.948-6.745V84.552h10.5v25.557c0 1.167.133 2.151.401 2.953.291.802.692 1.458 1.203 1.969s1.105.875 1.787 1.094c.704.219 1.483.328 2.333.328 2.163 0 3.864-.437 5.104-1.312 1.264-.875 2.151-2.066 2.661-3.573.535-1.531.803-3.233.803-5.104zm40.175 6.635c0-.753-.219-1.434-.656-2.042s-1.252-1.167-2.443-1.677c-1.167-.535-2.856-1.021-5.068-1.458a39.321 39.321 0 0 1-5.577-1.641c-1.701-.681-3.184-1.495-4.448-2.443-1.24-.948-2.212-2.066-2.917-3.354-.704-1.313-1.057-2.807-1.057-4.484a10.6 10.6 0 0 1 1.057-4.667c.729-1.458 1.763-2.747 3.099-3.865 1.361-1.142 3.015-2.03 4.959-2.661 1.969-.656 4.181-.984 6.636-.984 3.427 0 6.368.547 8.823 1.641 2.479 1.094 4.375 2.601 5.688 4.521 1.336 1.896 2.004 4.059 2.004 6.49h-10.5c0-1.021-.219-1.932-.656-2.734-.413-.826-1.069-1.471-1.968-1.932-.876-.486-2.017-.729-3.428-.729-1.167 0-2.175.207-3.025.62-.851.389-1.507.924-1.969 1.604a3.86 3.86 0 0 0-.656 2.187c0 .608.121 1.155.365 1.641.267.462.692.887 1.276 1.276.583.389 1.336.753 2.26 1.094.948.316 2.115.608 3.5.875 2.844.583 5.384 1.349 7.62 2.297 2.236.924 4.011 2.187 5.323 3.792 1.312 1.58 1.969 3.658 1.969 6.234 0 1.75-.389 3.354-1.167 4.813-.779 1.458-1.896 2.734-3.355 3.828-1.459 1.069-3.208 1.908-5.251 2.516-2.017.583-4.289.875-6.817.875-3.669 0-6.781-.656-9.333-1.969-2.528-1.313-4.448-2.977-5.76-4.995-1.288-2.042-1.932-4.132-1.932-6.271h9.952c.049 1.434.413 2.589 1.095 3.464a5.97 5.97 0 0 0 2.661 1.896c1.093.389 2.272.583 3.536.583 1.361 0 2.492-.182 3.391-.547.9-.389 1.58-.899 2.041-1.531.487-.656.729-1.41.729-2.26zm29.602-28.547V124h-10.536V84.552h10.536zm-11.192-10.281c0-1.531.535-2.795 1.604-3.792s2.503-1.495 4.301-1.495c1.775 0 3.197.498 4.267 1.495 1.093.997 1.64 2.26 1.64 3.792s-.547 2.795-1.64 3.792c-1.069.997-2.492 1.495-4.267 1.495-1.799 0-3.232-.498-4.301-1.495s-1.604-2.26-1.604-3.792zm31.644 18.703V124h-10.5V84.552h9.844l.656 8.422zm-1.53 9.917h-2.844c0-2.917.376-5.542 1.129-7.875.755-2.358 1.812-4.363 3.172-6.016 1.361-1.677 2.977-2.953 4.849-3.828 1.896-.899 4.011-1.349 6.344-1.349 1.847 0 3.536.267 5.068.802a9.698 9.698 0 0 1 3.937 2.552c1.117 1.167 1.968 2.71 2.552 4.63.608 1.92.911 4.266.911 7.036v25.156h-10.572V98.806c0-1.75-.244-3.111-.729-4.083-.487-.972-1.203-1.653-2.151-2.042-.924-.413-2.067-.62-3.428-.62-1.409 0-2.637.279-3.681.839a7.314 7.314 0 0 0-2.552 2.333c-.657.972-1.155 2.115-1.496 3.427-.34 1.313-.509 2.722-.509 4.229zm52.753 21.838c-3.063 0-5.809-.486-8.24-1.458-2.431-.997-4.496-2.37-6.197-4.12a18.323 18.323 0 0 1-3.865-6.089c-.899-2.333-1.348-4.813-1.348-7.437v-1.458c0-2.99.425-5.724 1.276-8.203s2.065-4.63 3.645-6.453c1.604-1.823 3.548-3.221 5.833-4.193 2.285-.997 4.861-1.495 7.729-1.495 2.795 0 5.275.462 7.437 1.385s3.975 2.236 5.432 3.938c1.483 1.701 2.601 3.743 3.355 6.125.753 2.358 1.131 4.983 1.131 7.875v4.375h-31.355v-7h21.036v-.802c0-1.458-.267-2.759-.801-3.901-.511-1.167-1.288-2.09-2.333-2.771s-2.383-1.021-4.011-1.021c-1.385 0-2.576.304-3.573.911-.996.608-1.811 1.458-2.443 2.552-.608 1.094-1.069 2.382-1.385 3.865-.292 1.458-.437 3.063-.437 4.813v1.458c0 1.58.219 3.038.656 4.375.463 1.337 1.107 2.491 1.932 3.464a8.817 8.817 0 0 0 3.063 2.26c1.216.535 2.589.802 4.12.802 1.896 0 3.659-.365 5.287-1.094 1.653-.753 3.075-1.884 4.265-3.391l5.104 5.542c-.827 1.191-1.956 2.333-3.391 3.427-1.409 1.094-3.111 1.993-5.104 2.698-1.993.681-4.265 1.021-6.817 1.021zm44.988-11.63c0-.753-.219-1.434-.656-2.042s-1.252-1.167-2.443-1.677c-1.167-.535-2.856-1.021-5.068-1.458a39.428 39.428 0 0 1-5.579-1.641c-1.701-.681-3.184-1.495-4.448-2.443-1.239-.948-2.211-2.066-2.916-3.354-.705-1.313-1.057-2.807-1.057-4.484 0-1.653.352-3.208 1.057-4.667.729-1.458 1.763-2.747 3.099-3.865 1.361-1.142 3.015-2.03 4.959-2.661 1.968-.656 4.18-.984 6.635-.984 3.428 0 6.369.547 8.824 1.641 2.479 1.094 4.375 2.601 5.687 4.521 1.337 1.896 2.005 4.059 2.005 6.49h-10.5c0-1.021-.219-1.932-.656-2.734-.413-.826-1.069-1.471-1.969-1.932-.875-.486-2.017-.729-3.427-.729-1.167 0-2.175.207-3.025.62-.851.389-1.508.924-1.969 1.604a3.86 3.86 0 0 0-.656 2.187c0 .608.121 1.155.364 1.641.268.462.693.887 1.276 1.276.584.389 1.337.753 2.261 1.094.948.316 2.115.608 3.5.875 2.843.583 5.383 1.349 7.619 2.297 2.237.924 4.011 2.187 5.324 3.792 1.312 1.58 1.968 3.658 1.968 6.234 0 1.75-.388 3.354-1.167 4.813-.777 1.458-1.896 2.734-3.353 3.828-1.459 1.069-3.209 1.908-5.251 2.516-2.017.583-4.289.875-6.817.875-3.671 0-6.781-.656-9.333-1.969-2.528-1.313-4.448-2.977-5.76-4.995-1.289-2.042-1.933-4.132-1.933-6.271h9.953c.049 1.434.413 2.589 1.093 3.464a5.971 5.971 0 0 0 2.663 1.896c1.093.389 2.272.583 3.536.583 1.361 0 2.491-.182 3.391-.547.899-.389 1.58-.899 2.041-1.531.487-.656.729-1.41.729-2.26zm39.848 0c0-.753-.219-1.434-.657-2.042-.437-.608-1.251-1.167-2.443-1.677-1.167-.535-2.855-1.021-5.067-1.458a39.389 39.389 0 0 1-5.579-1.641c-1.701-.681-3.184-1.495-4.448-2.443-1.24-.948-2.212-2.066-2.916-3.354-.705-1.313-1.057-2.807-1.057-4.484 0-1.653.352-3.208 1.057-4.667.729-1.458 1.761-2.747 3.099-3.865 1.361-1.142 3.013-2.03 4.959-2.661 1.968-.656 4.18-.984 6.635-.984 3.427 0 6.368.547 8.823 1.641 2.48 1.094 4.376 2.601 5.688 4.521 1.337 1.896 2.005 4.059 2.005 6.49h-10.5c0-1.021-.219-1.932-.656-2.734-.413-.826-1.069-1.471-1.969-1.932-.875-.486-2.017-.729-3.427-.729-1.167 0-2.176.207-3.027.62-.851.389-1.507.924-1.968 1.604a3.86 3.86 0 0 0-.656 2.187c0 .608.121 1.155.364 1.641.268.462.693.887 1.276 1.276.584.389 1.337.753 2.26 1.094.948.316 2.115.608 3.5.875 2.844.583 5.384 1.349 7.62 2.297 2.236.924 4.011 2.187 5.323 3.792 1.313 1.58 1.969 3.658 1.969 6.234 0 1.75-.389 3.354-1.167 4.813s-1.896 2.734-3.355 3.828c-1.457 1.069-3.208 1.908-5.249 2.516-2.017.583-4.291.875-6.817.875-3.671 0-6.781-.656-9.333-1.969-2.528-1.313-4.448-2.977-5.761-4.995-1.288-2.042-1.932-4.132-1.932-6.271h9.953c.048 1.434.413 2.589 1.093 3.464a5.976 5.976 0 0 0 2.661 1.896c1.095.389 2.273.583 3.537.583 1.36 0 2.491-.182 3.391-.547.899-.389 1.579-.899 2.041-1.531.485-.656.729-1.41.729-2.26z" style="fill:var(--color2, #fff)"/><path fill="#2e2f42" d="M-741.333-378.667h1920v901.333h-1920v-901.333z" opacity=".4" style="fill:var(--color4, #2e2f42)"/><path fill="#fcfcfc" d="M-48-272h533.333a5.333 5.333 0 0 1 5.333 5.333v768a5.333 5.333 0 0 1-5.333 5.333H-48a5.333 5.333 0 0 1-5.333-5.333v-768A5.333 5.333 0 0 1-48-272z" style="fill:var(--color5, #fcfcfc)"/><path fill="none" stroke="#2e2f42" stroke-width="1.333" d="M-16-10h469.333A4.667 4.667 0 0 1 458-5.333v42.667a4.667 4.667 0 0 1-4.667 4.667H-16a4.667 4.667 0 0 1-4.667-4.667V-5.333A4.667 4.667 0 0 1-16-10z" style="stroke:var(--color4, #2e2f42)"/><path fill="#2e2f42" d="m19.635 18.487-2.451-.28a1.92 1.92 0 0 0-1.582.55l-1.775 1.775a14.514 14.514 0 0 1-6.359-6.359l1.785-1.785c.415-.415.618-.994.55-1.582l-.28-2.432a1.931 1.931 0 0 0-1.92-1.708H5.934c-1.09 0-1.997.907-1.93 1.997.511 8.24 7.102 14.821 15.332 15.332 1.09.068 1.997-.839 1.997-1.93v-1.669a1.913 1.913 0 0 0-1.698-1.911z" style="fill:var(--color4, #2e2f42)"/></symbol>

<symbol id="icon-modal-person" viewBox="0 0 32 32"><path fill="#e5e5e5" d="M0 0h32v32H0V0z" style="fill:var(--color1, #e5e5e5)"/><path fill="#fff" d="M-988.444-392.889h2560V801.778h-2560V-392.889z" style="fill:var(--color2, #fff)"/><path d="M-988.444-264.889h2560V801.778h-2560V-264.889z" style="fill:var(--color3, #000)"/><path fill="#2e2f42" d="M-988.444-264.889h2560V801.778h-2560V-264.889z" opacity=".7" style="fill:var(--color4, #2e2f42)"/><path fill="#2e2f42" d="M-988.444-392.889h2560V808.889h-2560V-392.889z" opacity=".4" style="fill:var(--color4, #2e2f42)"/><path fill="#fcfcfc" d="M-64-250.667h711.111a7.111 7.111 0 0 1 7.111 7.111v1024a7.111 7.111 0 0 1-7.111 7.111H-64a7.111 7.111 0 0 1-7.111-7.111v-1024A7.111 7.111 0 0 1-64-250.667z" style="fill:var(--color5, #fcfcfc)"/><path fill="none" stroke="#4d5ae5" stroke-width="1.778" d="M-21.333-18.667h625.778a6.222 6.222 0 0 1 6.222 6.222v56.889a6.222 6.222 0 0 1-6.222 6.222H-21.333a6.222 6.222 0 0 1-6.222-6.222v-56.889a6.222 6.222 0 0 1 6.222-6.222z" style="stroke:var(--color6, #4d5ae5)"/><path fill="#4d5ae5" d="M16 16c2.947 0 5.333-2.387 5.333-5.333S18.946 5.334 16 5.334c-2.947 0-5.333 2.387-5.333 5.333S13.054 16 16 16zm0 2.667c-3.56 0-10.667 1.787-10.667 5.333v1.333c0 .733.6 1.333 1.333 1.333h18.667c.733 0 1.333-.6 1.333-1.333V24c0-3.547-7.107-5.333-10.667-5.333z" style="fill:var(--color6, #4d5ae5)"/></symbol>

<symbol id="icon-client6-1" viewBox="0 0 67 32"><path fill="#e5e5e5" d="M0 0h66.844v32H0V0z" style="fill:var(--color1, #e5e5e5)"/><path fill="#fff" d="M-820.622-1921.422h1024V354.134h-1024v-2275.556z" style="fill:var(--color2, #fff)"/><path fill="none" stroke="#8e8f99" stroke-width=".711" d="M-24.178-15.289H89.6a2.489 2.489 0 0 1 2.489 2.489v56.889a2.489 2.489 0 0 1-2.489 2.489H-24.178a2.489 2.489 0 0 1-2.489-2.489V-12.8a2.489 2.489 0 0 1 2.489-2.489z" style="stroke:var(--color7, #8e8f99)"/><path fill="#8e8f99" d="M33.799 15.249a2.098 2.098 0 0 1-.431-1.417v-2.054c0-.63.143-1.108.428-1.435s.776-.49 1.472-.489c.654 0 1.118.139 1.392.418.299.355.445.79.412 1.229v.483h-1.169v-.489a2.47 2.47 0 0 0-.034-.478.464.464 0 0 0-.167-.284.676.676 0 0 0-.424-.111.714.714 0 0 0-.445.117.55.55 0 0 0-.194.313 2.349 2.349 0 0 0-.046.508v2.492c-.018.24.033.481.15.7.058.074.139.133.233.17s.199.05.302.039c.15.011.299-.03.414-.113a.5.5 0 0 0 .174-.303 2.78 2.78 0 0 0 .036-.499v-.506h1.169v.462c.033.457-.109.911-.404 1.291-.269.305-.726.458-1.399.458s-1.181-.163-1.47-.501zM38.668 15.269c-.295-.32-.443-.786-.443-1.402v-2.16c0-.61.148-1.072.443-1.385s.789-.469 1.482-.468c.688 0 1.179.156 1.474.468.295.313.446.775.446 1.385v2.16c0 .61-.15 1.078-.45 1.4s-.789.483-1.47.483-1.184-.163-1.482-.48zm2.026-.518c.106-.2.154-.42.14-.639v-2.645a1.172 1.172 0 0 0-.138-.627c-.059-.076-.142-.135-.239-.172s-.204-.05-.308-.037c-.105-.013-.212 0-.309.037s-.18.096-.24.172a1.138 1.138 0 0 0-.14.627v2.658c-.015.22.033.439.14.639.068.067.152.121.247.158a.828.828 0 0 0 .6 0 .747.747 0 0 0 .247-.158v-.013zM43.476 9.917h1.259l.947 3.986.968-3.986h1.225l.123 5.753h-.905l-.097-3.998-.935 3.998h-.726l-.968-4.013-.09 4.013h-.915l.114-5.753zM49.41 9.917h1.961c1.13 0 1.695.545 1.695 1.634 0 1.043-.595 1.564-1.784 1.563h-.668v2.557h-1.211l.007-5.753zm1.675 2.459c.12.013.241.004.356-.028s.221-.084.31-.154a.929.929 0 0 0 .174-.65 1.808 1.808 0 0 0-.058-.522c-.017-.057-.048-.111-.089-.158s-.094-.086-.153-.116a1.251 1.251 0 0 0-.54-.092h-.47v1.719h.47zM54.812 9.917h1.3l1.334 5.753h-1.128l-.264-1.327h-1.16l-.271 1.327h-1.145l1.334-5.753zm1.111 3.76-.453-2.415-.453 2.415h.906zM58.523 9.917h.847l1.622 3.282V9.917h1.005v5.753h-.806l-1.632-3.426v3.426H58.52l.002-5.753zM64.351 13.477l-1.349-3.552h1.135l.823 2.281.772-2.281h1.111l-1.332 3.552v2.194h-1.162v-2.194zM35.668 18.186v.301h-.988v2.338h-.414v-2.338h-.993v-.301h2.394zM38.764 20.824h-.32a.143.143 0 0 1-.09-.025.13.13 0 0 1-.053-.061l-.286-.627h-1.37l-.286.627a.172.172 0 0 1-.044.071.153.153 0 0 1-.09.025h-.32l1.211-2.639h.421l1.225 2.628zm-2.004-.979h1.143l-.484-1.074a1.85 1.85 0 0 1-.09-.249c-.017.05-.031.098-.046.14l-.044.111-.479 1.072zM40.851 20.565c.076.003.152.003.228 0a1.651 1.651 0 0 0 .368-.079c.053-.019.107-.042.162-.065v-.593h-.484c-.012.001-.024-.001-.035-.005s-.021-.009-.03-.016a.062.062 0 0 1-.024-.048v-.203h.939v1.011a1.907 1.907 0 0 1-.511.215c-.099.025-.2.043-.303.054a3.775 3.775 0 0 1-.353.017 1.843 1.843 0 0 1-.61-.098 1.492 1.492 0 0 1-.484-.276 1.259 1.259 0 0 1-.312-.418 1.32 1.32 0 0 1-.111-.547 1.356 1.356 0 0 1 .109-.552c.07-.156.176-.299.312-.418a1.47 1.47 0 0 1 .484-.274c.207-.067.427-.101.649-.098.113 0 .225.008.337.023a1.65 1.65 0 0 1 .53.171c.074.041.145.087.211.138l-.116.163c-.009.015-.023.027-.039.036s-.036.014-.055.014a.16.16 0 0 1-.075-.021 1.81 1.81 0 0 1-.119-.063 1.02 1.02 0 0 0-.162-.071 1.524 1.524 0 0 0-.223-.059 1.85 1.85 0 0 0-.307-.023 1.413 1.413 0 0 0-.467.073 1.03 1.03 0 0 0-.356.209.918.918 0 0 0-.225.328 1.236 1.236 0 0 0 0 .88 1.027 1.027 0 0 0 .595.541c.154.046.317.063.479.052zM44.711 20.523h1.322v.301h-1.726v-2.639h.414l-.01 2.338zM47.408 20.824h-.414v-2.639h.414v2.639zM48.948 18.198a.189.189 0 0 1 .063.048l1.77 1.989a.737.737 0 0 1 0-.094v-1.966h.361v2.649h-.208a.197.197 0 0 1-.09-.015.23.23 0 0 1-.065-.05l-1.767-1.987V20.823h-.346v-2.639h.215c.023 0 .047.004.068.012zM54.189 18.186v.29h-1.467v.871h1.189v.28h-1.189v.9h1.467v.29h-1.893v-2.632h1.893zM10.805 1.891l18.384 4.504v15.784l-18.384-4.502V1.891zM9.626.545v17.898l20.739 5.083V5.63L9.626.545z" style="fill:var(--color7, #8e8f99)"/><path fill="#8e8f99" d="M20.742 31.834 0 26.747V8.851l20.742 5.085v17.898z" style="fill:var(--color7, #8e8f99)"/><path fill="#8e8f99" d="m9.97 1.688 18.144 4.448-7.716 6.66-18.146-4.45L9.97 1.688zM9.626.545 0 8.851l20.742 5.085 9.624-8.306L9.627.545zM21.909 30.827l8.457-7.299-8.457-2.074v9.374z" style="fill:var(--color7, #8e8f99)"/></symbol>

<symbol id="icon-client4-1" viewBox="0 0 60 32"><path fill="#8e8f99" d="M11.628 8.523h-.002c-1.624 0-2.941 1.187-2.941 2.652v.002c0 1.464 1.317 2.652 2.941 2.652h.002c1.624 0 2.941-1.187 2.941-2.652v-.002c0-1.464-1.317-2.652-2.941-2.652zM33.335 7.675c-.005-2.034-.903-3.984-2.498-5.422S27.08.004 24.824 0c-2.257.004-4.42.813-6.016 2.252s-2.494 3.389-2.499 5.423v11.216s17.024-1.709 17.026-11.215v-.002zM2.723 22.573c.004 1.415.629 2.772 1.739 3.773s2.614 1.565 4.184 1.569c1.569-.004 3.073-.568 4.183-1.569s1.735-2.356 1.74-3.771V14.77S2.724 15.96 2.724 22.573zm5.923 1.399c-.307 0-.607-.082-.862-.236s-.454-.372-.571-.628-.148-.537-.088-.808.208-.52.424-.716.493-.329.794-.383c.301-.054.613-.026.896.08s.526.285.696.515a1.289 1.289 0 0 1 .145 1.314 1.377 1.377 0 0 1-.336.455c-.144.13-.315.234-.504.304s-.391.107-.595.107v-.005zM19.478 21.457v2.904h-.598v-2.904h.598zm1.157 1.241v.467h-1.32v-.467h1.32zm.14-1.241v.469h-1.46v-.469h1.46zm2.733 1.384v.138c0 .221-.03.419-.09.594s-.144.325-.253.449a1.096 1.096 0 0 1-.391.281c-.15.065-.317.098-.501.098-.182 0-.349-.033-.501-.098a1.123 1.123 0 0 1-.391-.281 1.317 1.317 0 0 1-.257-.449 1.834 1.834 0 0 1-.09-.594v-.138c0-.222.03-.42.09-.594a1.31 1.31 0 0 1 .253-.449c.11-.124.241-.218.391-.283.152-.065.318-.098.501-.098.184 0 .35.033.501.098.152.065.282.16.391.283.11.124.195.273.255.449.061.174.092.372.092.594zm-.605.138v-.142c0-.154-.014-.29-.042-.407s-.069-.215-.124-.295a.535.535 0 0 0-.469-.242.535.535 0 0 0-.466.242c-.053.08-.094.178-.122.295s-.042.253-.042.407v.142c0 .153.014.289.042.407a.895.895 0 0 0 .124.297.547.547 0 0 0 .469.243c.101 0 .191-.021.269-.062s.144-.102.197-.181a.938.938 0 0 0 .122-.297c.028-.118.042-.254.042-.407zm2.548.622a.388.388 0 0 0-.024-.14.27.27 0 0 0-.084-.116c-.041-.036-.099-.071-.174-.106s-.171-.071-.289-.108a3.52 3.52 0 0 1-.375-.144 1.54 1.54 0 0 1-.311-.185.83.83 0 0 1-.211-.249.68.68 0 0 1-.076-.329c0-.121.027-.231.08-.329a.754.754 0 0 1 .223-.255c.096-.072.209-.127.339-.166.132-.039.276-.058.433-.058.214 0 .401.039.56.116s.283.183.371.317a.815.815 0 0 1 .134.461h-.594a.444.444 0 0 0-.054-.223.373.373 0 0 0-.16-.154.571.571 0 0 0-.267-.056.614.614 0 0 0-.259.048.348.348 0 0 0-.156.126.306.306 0 0 0-.052.176c0 .049.012.094.036.134.025.04.063.077.112.112s.11.067.181.098c.072.031.155.06.249.09.158.048.297.102.417.162.121.06.222.127.303.201s.142.159.184.253a.796.796 0 0 1 .062.321c0 .126-.025.239-.074.339s-.12.184-.213.253-.204.122-.333.158-.273.054-.433.054c-.144 0-.285-.019-.425-.056a1.272 1.272 0 0 1-.381-.174.844.844 0 0 1-.373-.72h.6c0 .09.014.167.042.229s.067.113.118.152a.513.513 0 0 0 .183.084c.072.017.15.026.235.026a.638.638 0 0 0 .255-.044.314.314 0 0 0 .2-.298zm2.303-2.144v2.904h-.596v-2.904h.596zm.894 0v.469h-2.37v-.469h2.37zm2.29 2.438v.467h-1.546v-.467h1.546zm-1.351-2.438v2.904h-.598v-2.904h.598zm1.149 1.183v.455h-1.344v-.455h1.344zm.2-1.183v.469h-1.544v-.469h1.544zm.351 0h1.083c.222 0 .413.033.572.1.161.067.285.165.371.295s.13.291.13.481a.928.928 0 0 1-.08.401.757.757 0 0 1-.221.277 1.145 1.145 0 0 1-.333.176l-.189.1h-.941l-.004-.467h.7c.105 0 .192-.019.261-.056s.121-.089.156-.156a.478.478 0 0 0 .054-.231c0-.093-.017-.174-.052-.241s-.087-.12-.158-.156-.159-.054-.265-.054h-.485v2.435h-.598v-2.904zm1.624 2.904-.662-1.294.632-.004.67 1.271v.028h-.64zm3.141-1.035h-.74v-.467h.74a.61.61 0 0 0 .279-.056c.072-.039.124-.092.158-.16s.05-.144.05-.229c0-.086-.017-.167-.05-.241s-.086-.134-.158-.18-.165-.068-.279-.068h-.533v2.435h-.598v-2.904h1.131c.227 0 .422.041.584.124.164.081.289.193.375.337s.13.308.13.493c0 .188-.043.35-.13.487s-.211.243-.375.317a1.399 1.399 0 0 1-.584.112zm3.451.569v.467h-1.546v-.467h1.546zm-1.35-2.438v2.904h-.598v-2.904h.598zm1.148 1.183v.455h-1.344v-.455h1.344zm.2-1.183v.469h-1.544v-.469h1.544zm1.689 0v2.904h-.596v-2.904h.596zm.894 0v.469h-2.37v-.469h2.37zm2.29 2.438v.467h-1.546v-.467h1.546zm-1.35-2.438v2.904h-.598v-2.904h.598zm1.149 1.183v.455h-1.344v-.455h1.344zm.199-1.183v.469h-1.544v-.469h1.544zm.351 0h1.083c.222 0 .413.033.573.1.161.067.285.165.371.295s.13.291.13.481a.928.928 0 0 1-.08.401.757.757 0 0 1-.221.277 1.145 1.145 0 0 1-.333.176l-.19.1h-.941l-.004-.467h.7c.105 0 .192-.019.261-.056s.121-.089.156-.156a.478.478 0 0 0 .054-.231c0-.093-.017-.174-.052-.241s-.087-.12-.158-.156a.579.579 0 0 0-.265-.054h-.485v2.435h-.598v-2.904zm1.624 2.904-.662-1.294.632-.004.67 1.271v.028h-.64zm2.505-.76a.388.388 0 0 0-.024-.14.27.27 0 0 0-.084-.116c-.041-.036-.099-.071-.174-.106s-.171-.071-.289-.108a3.52 3.52 0 0 1-.375-.144 1.54 1.54 0 0 1-.311-.185.83.83 0 0 1-.211-.249.68.68 0 0 1-.076-.329c0-.121.027-.231.08-.329a.754.754 0 0 1 .223-.255c.096-.072.209-.127.339-.166.132-.039.276-.058.433-.058.214 0 .401.039.56.116s.283.183.371.317a.815.815 0 0 1 .134.461h-.594a.444.444 0 0 0-.054-.223.373.373 0 0 0-.16-.154.571.571 0 0 0-.267-.056.614.614 0 0 0-.259.048.348.348 0 0 0-.156.126.306.306 0 0 0-.052.176c0 .049.012.094.036.134.025.04.063.077.112.112s.11.067.181.098c.072.031.155.06.249.09.158.048.297.102.417.162.121.06.222.127.303.201s.142.159.184.253a.796.796 0 0 1 .062.321c0 .126-.025.239-.074.339s-.12.184-.213.253-.204.122-.333.158-.273.054-.433.054c-.144 0-.285-.019-.425-.056a1.272 1.272 0 0 1-.381-.174.844.844 0 0 1-.373-.72h.6c0 .09.014.167.042.229s.067.113.118.152a.51.51 0 0 0 .184.084c.072.017.15.026.235.026a.638.638 0 0 0 .255-.044.314.314 0 0 0 .2-.298z" style="fill:var(--color7, #8e8f99)"/></symbol>

<symbol id="icon-team-img-4" viewBox="0 0 32 32"><path fill="#f4f4fd" d="M31.992 32v-.001H32V20.263c0-5.741-1.236-10.164-7.948-10.164-3.227 0-5.392 1.771-6.276 3.449h-.093v-2.913h-6.364v21.364h6.627V21.42c0-2.785.528-5.479 3.977-5.479 3.399 0 3.449 3.179 3.449 5.657v10.401h6.62zM.528 10.636h6.635V32H.528V10.636zM3.843 0C1.722 0 0 1.721 0 3.843s1.721 3.879 3.843 3.879c2.121 0 3.843-1.757 3.843-3.879A3.846 3.846 0 0 0 3.843 0z" style="fill:var(--color8, #f4f4fd)"/></symbol>

<symbol id="icon-w-close" viewBox="0 0 32 32"><path d="M32 3.223 28.777 0 16 12.777 3.223 0 0 3.223 12.777 16 0 28.777 3.223 32 16 19.223 28.777 32 32 28.777 19.223 16 32 3.223z"/></symbol>

<symbol id="icon-client6" viewBox="0 0 32 32"><path fill="#8e8f99" d="M16.18 15.64a1.006 1.006 0 0 1-.206-.678v-.983c0-.301.068-.53.205-.687s.372-.235.705-.234c.313 0 .535.067.666.2.143.17.213.378.197.588v.231h-.56v-.234a1.171 1.171 0 0 0-.016-.229.22.22 0 0 0-.08-.136.325.325 0 0 0-.203-.053.34.34 0 0 0-.213.056.264.264 0 0 0-.093.15 1.17 1.17 0 0 0-.022.243v1.193a.608.608 0 0 0 .072.335c.028.035.067.064.112.081s.095.024.144.019a.302.302 0 0 0 .198-.054.235.235 0 0 0 .083-.145c.013-.079.019-.159.017-.239v-.242h.56v.221a.894.894 0 0 1-.194.618c-.129.146-.348.219-.67.219s-.566-.078-.704-.24zM18.511 15.65c-.141-.153-.212-.376-.212-.671v-1.034c0-.292.071-.513.212-.663s.378-.225.709-.224c.329 0 .564.075.706.224s.213.371.213.663v1.034c0 .292-.072.516-.216.67s-.378.231-.704.231-.567-.078-.709-.23zm.97-.248a.57.57 0 0 0 .067-.306V13.83a.566.566 0 0 0-.066-.3c-.028-.036-.068-.065-.114-.082s-.097-.024-.148-.018c-.05-.006-.102 0-.148.018s-.086.046-.115.082a.549.549 0 0 0-.067.3v1.272a.57.57 0 0 0 .067.306.363.363 0 0 0 .262.103.363.363 0 0 0 .262-.103v-.006zM20.813 13.088h.603l.453 1.908.464-1.908h.587l.059 2.754h-.433l-.046-1.914-.447 1.914h-.348l-.464-1.921-.043 1.921h-.438l.054-2.754zM23.654 13.088h.939c.541 0 .811.261.811.782 0 .499-.285.749-.854.748h-.32v1.224h-.579l.003-2.754zm.802 1.177c.057.006.115.002.17-.013s.106-.04.148-.074a.444.444 0 0 0 .083-.311.846.846 0 0 0-.028-.25c-.008-.027-.023-.053-.043-.076s-.045-.041-.073-.055a.608.608 0 0 0-.258-.044h-.225v.823h.225zM26.24 13.088h.622l.639 2.754h-.54l-.126-.635h-.555l-.13.635h-.548l.639-2.754zm.532 1.8-.217-1.156-.217 1.156h.433zM28.016 13.088h.406l.777 1.571v-1.571h.481v2.754h-.386l-.781-1.64v1.64h-.497l.001-2.754zM30.806 14.792l-.646-1.7h.544l.394 1.092.37-1.092H32l-.637 1.7v1.05h-.556v-1.05zM17.075 17.046v.144h-.473v1.119h-.198V17.19h-.475v-.144h1.146zM18.557 18.31h-.153a.064.064 0 0 1-.043-.012.066.066 0 0 1-.026-.029l-.137-.3h-.656l-.137.3a.08.08 0 0 1-.021.034.07.07 0 0 1-.043.012h-.153l.579-1.263h.202l.587 1.258zm-.959-.469h.547l-.232-.514a1.06 1.06 0 0 1-.043-.119l-.022.067-.021.053-.23.513zM19.556 18.186a.99.99 0 0 0 .109 0 .75.75 0 0 0 .176-.038c.026-.009.051-.02.078-.031v-.284h-.232c-.006 0-.011 0-.017-.002s-.01-.004-.014-.008c-.004-.003-.007-.006-.009-.01s-.003-.008-.003-.013v-.097h.45v.484a.795.795 0 0 1-.245.103 1 1 0 0 1-.145.026 1.911 1.911 0 0 1-.169.008.872.872 0 0 1-.292-.047.623.623 0 0 1-.381-.332.615.615 0 0 1-.053-.262.576.576 0 0 1 .201-.464.696.696 0 0 1 .232-.131.986.986 0 0 1 .311-.047c.054 0 .108.004.161.011a.813.813 0 0 1 .254.082c.035.02.069.042.101.066l-.056.078c-.004.007-.011.013-.019.017s-.017.007-.026.007a.075.075 0 0 1-.036-.01.822.822 0 0 1-.057-.03.764.764 0 0 0-.556-.038.438.438 0 0 0-.278.257.588.588 0 0 0 0 .421.447.447 0 0 0 .116.159.512.512 0 0 0 .169.1c.074.022.152.03.229.025zM21.404 18.165h.633v.144h-.826v-1.263h.198l-.005 1.119zM22.695 18.309h-.198v-1.263h.198v1.263zM23.432 17.052a.1.1 0 0 1 .03.023l.847.952a.338.338 0 0 1 0-.045V17.041h.173v1.268h-.1a.089.089 0 0 1-.043-.007.092.092 0 0 1-.031-.024l-.846-.951v.982h-.166v-1.263h.103c.011 0 .022.002.032.006zM25.942 17.046v.139h-.702v.417h.569v.134h-.569v.431h.702v.139h-.906v-1.26h.906zM5.173 9.246l8.801 2.156v7.556l-8.801-2.155V9.246zm-.565-.645v8.568l9.928 2.433v-8.567L4.608 8.601z" style="fill:var(--color7, #8e8f99)"/><path fill="#8e8f99" d="M9.93 23.58 0 21.145v-8.567l9.93 2.434v8.568zM4.773 9.149l8.686 2.129-3.694 3.188-8.687-2.13 3.695-3.187zm-.165-.548L0 12.577l9.93 2.434 4.607-3.976-9.928-2.434zM10.488 23.098l4.048-3.494-4.049-.993v4.487z" style="fill:var(--color7, #8e8f99)"/></symbol>

<symbol id="icon-client5" viewBox="0 0 32 32"><path fill="#8e8f99" d="M2.434 23.808a.716.716 0 0 1 .188.492c.006.116-.016.233-.067.34s-.127.203-.224.281a1.361 1.361 0 0 1-.845.227H0v-3.115h1.455c.287-.017.572.056.806.207.094.071.168.16.217.261s.071.211.065.321a.669.669 0 0 1-.169.476.808.808 0 0 1-.443.244.869.869 0 0 1 .502.266zm-1.743-.47h.622a.643.643 0 0 0 .396-.103c.047-.038.083-.085.106-.138s.032-.11.027-.166c.004-.056-.005-.113-.028-.166s-.058-.1-.104-.139a.65.65 0 0 0-.407-.105H.691v.817zm1.079 1.195c.05-.039.089-.088.115-.143s.037-.114.032-.174c.004-.06-.008-.12-.034-.176s-.066-.105-.117-.144a.7.7 0 0 0-.423-.113H.691v.857h.661a.702.702 0 0 0 .417-.108zM5.409 25.148l-.81-1.217h-.304v1.217h-.696v-3.115h1.318c.332-.021.661.074.918.265.184.169.295.392.313.628s-.058.471-.215.661c-.163.168-.385.28-.629.317l.862 1.245h-.757zm-1.114-1.642h.57c.396 0 .593-.157.593-.472.004-.064-.007-.128-.032-.189s-.064-.115-.114-.161a.66.66 0 0 0-.448-.126h-.576l.007.948zM9.215 24.521H7.827l-.245.627h-.73l1.274-3.08h.789l1.269 3.08h-.73l-.24-.627zm-.186-.472-.507-1.315-.507 1.315h1.014zM13.98 25.148h-.691l-1.55-2.118v2.118h-.69v-3.115h.69l1.55 2.13v-2.13h.691v3.115zM17.925 24.402a1.437 1.437 0 0 1-.625.549 2.224 2.224 0 0 1-.972.196h-1.231v-3.115h1.231c.336-.008.67.058.972.192.265.12.483.309.625.543.142.253.216.533.216.817s-.074.564-.216.817zm-.791-.075c.197-.207.306-.471.306-.743s-.108-.536-.306-.743a1.287 1.287 0 0 0-.865-.265h-.48v2.016h.48c.316.018.627-.077.865-.265zM9.648 4.707s8.923 3.033 8.734 7.421v7.423s-8.916-3.034-8.73-7.423l-.003-7.421zM26.331 17.813A13.087 13.087 0 0 1 32 15.932v-2.324c-2.345.813-4.333 2.289-5.669 4.204z" style="fill:var(--color7, #8e8f99)"/><path fill="#8e8f99" d="M25.318 18.513c1.379-2.5 3.77-4.43 6.682-5.391V6.427s-12.707 4.32-12.439 10.57v10.568s.566-.193 1.457-.555c0-.338 0-.679.041-1.021.263-2.901 1.795-5.59 4.259-7.474z" style="fill:var(--color7, #8e8f99)"/><path fill="#8e8f99" d="M24.11 22.439a9.944 9.944 0 0 1 .445-2.164c-1.534 1.628-2.464 3.647-2.657 5.775a8.667 8.667 0 0 0-.034.609 37.889 37.889 0 0 0 2.444-1.16 9.874 9.874 0 0 1-.198-3.06zM24.615 22.477a9.412 9.412 0 0 0 .157 2.771c3.472-1.87 7.373-4.76 7.223-8.252v-.304c-2.48.25-4.801 1.226-6.606 2.779a9.578 9.578 0 0 0-.774 3.007z" style="fill:var(--color7, #8e8f99)"/></symbol>

<symbol id="icon-client4" viewBox="0 0 32 32"><path fill="#8e8f99" d="M6.21 12.007h-.001c-.867 0-1.571.634-1.571 1.416v.001c0 .782.703 1.416 1.571 1.416h.001c.867 0 1.571-.634 1.571-1.416v-.001c0-.782-.703-1.416-1.571-1.416zM17.804 11.554c-.002-1.086-.482-2.128-1.334-2.896s-2.007-1.201-3.212-1.203c-1.205.002-2.361.434-3.213 1.203s-1.332 1.81-1.335 2.896v5.991s9.092-.913 9.093-5.99v-.001zM1.455 19.511c.002.756.336 1.48.929 2.015s1.396.836 2.234.838c.838-.002 1.641-.303 2.234-.838s.927-1.259.929-2.014v-4.168s-6.327.636-6.327 4.167zm3.163.747c-.164 0-.324-.044-.46-.126s-.242-.199-.305-.335-.079-.287-.047-.432c.032-.145.111-.278.227-.382s.263-.176.424-.204c.161-.029.327-.014.479.043s.281.152.372.275a.696.696 0 0 1-.101.945c-.077.07-.168.125-.269.163s-.209.057-.318.057v-.003zM10.403 18.915v1.551h-.32v-1.551h.32zm.618.662v.249h-.705v-.249h.705zm.075-.662v.25h-.78v-.25h.78zm1.459.739v.074c0 .118-.016.224-.048.317s-.077.174-.135.24c-.058.065-.128.115-.209.15s-.169.052-.267.052c-.097 0-.186-.017-.267-.052s-.15-.085-.209-.15c-.059-.066-.105-.146-.137-.24s-.048-.2-.048-.317v-.074c0-.119.016-.224.048-.317s.077-.174.135-.24c.059-.066.129-.116.209-.151s.17-.052.267-.052c.098 0 .187.017.267.052s.151.085.209.151c.059.066.104.146.136.24s.049.199.049.317zm-.323.073v-.076c0-.082-.007-.155-.022-.217s-.037-.115-.066-.158-.065-.075-.107-.096c-.042-.022-.09-.033-.144-.033s-.102.011-.144.033c-.041.021-.076.053-.105.096s-.05.095-.065.158a.941.941 0 0 0-.022.217v.076c0 .082.007.154.022.217s.037.115.066.159a.29.29 0 0 0 .251.13.278.278 0 0 0 .249-.13c.028-.043.05-.096.065-.159s.022-.136.022-.217zm1.361.333c0-.028-.004-.053-.013-.075s-.023-.043-.045-.062c-.022-.019-.053-.038-.093-.056s-.091-.038-.154-.058c-.07-.023-.137-.048-.2-.077s-.118-.061-.166-.099c-.048-.038-.085-.083-.113-.133s-.04-.109-.04-.176c0-.065.014-.123.043-.176s.068-.099.119-.136c.051-.038.111-.068.181-.088s.147-.031.231-.031c.114 0 .214.021.299.062s.151.098.198.169a.433.433 0 0 1 .071.246h-.317c0-.045-.01-.085-.029-.119s-.047-.062-.085-.082a.303.303 0 0 0-.143-.03c-.055 0-.102.009-.138.026s-.065.039-.083.067a.17.17 0 0 0-.028.094c0 .026.006.05.019.071s.033.041.06.06.059.036.097.052c.038.016.083.032.133.048.085.026.159.054.223.086s.119.068.162.108c.043.04.076.085.098.135s.033.108.033.172a.368.368 0 0 1-.153.316c-.05.037-.109.065-.178.084a.869.869 0 0 1-.458-.001.688.688 0 0 1-.204-.093c-.06-.041-.109-.094-.145-.158s-.054-.14-.054-.227h.321c0 .048.007.089.022.122s.036.06.063.081c.028.021.06.035.098.045a.496.496 0 0 0 .262-.009.169.169 0 0 0 .107-.159zm1.23-1.145v1.551h-.319v-1.551h.319zm.478 0v.25h-1.266v-.25h1.266zm1.223 1.301v.249h-.826v-.249h.826zm-.722-1.301v1.551h-.32v-1.551h.32zm.614.631v.243h-.718v-.243h.718zm.107-.631v.25h-.825v-.25h.825zm.187 0h.578c.119 0 .221.018.306.053s.152.088.198.158.069.155.069.257c0 .083-.014.154-.043.214s-.067.108-.118.148a.627.627 0 0 1-.178.094l-.101.053h-.503l-.002-.249h.374c.056 0 .103-.01.14-.03s.065-.048.083-.083a.258.258 0 0 0 .029-.124c0-.05-.009-.093-.028-.129s-.047-.064-.084-.083-.085-.029-.142-.029h-.259v1.301h-.32v-1.551zm.867 1.551-.354-.691.338-.002.358.679v.015h-.342zm1.678-.553h-.395v-.249h.395c.061 0 .111-.01.149-.03s.066-.049.084-.085a.314.314 0 0 0 0-.251c-.018-.04-.046-.072-.084-.096s-.088-.036-.149-.036h-.284v1.301h-.32v-1.551h.604c.121 0 .226.022.312.066s.154.103.2.18a.501.501 0 0 1 .069.263c0 .1-.023.187-.069.26s-.113.13-.2.169a.742.742 0 0 1-.312.06zm1.843.303v.249h-.826v-.249h.826zm-.721-1.301v1.551h-.32v-1.551h.32zm.614.631v.243h-.718v-.243h.718zm.106-.631v.25h-.825v-.25h.825zm.902 0v1.551h-.319v-1.551h.319zm.478 0v.25h-1.266v-.25h1.266zm1.223 1.301v.249h-.826v-.249h.826zm-.721-1.301v1.551h-.32v-1.551h.32zm.613.631v.243h-.718v-.243h.718zm.107-.631v.25h-.825v-.25h.825zm.187 0h.578c.119 0 .221.018.306.053s.152.088.198.158c.046.07.069.155.069.257 0 .083-.014.154-.043.214s-.067.108-.118.148a.627.627 0 0 1-.178.094l-.101.053h-.503l-.002-.249h.374c.056 0 .103-.01.14-.03s.065-.048.083-.083a.258.258 0 0 0 .029-.124c0-.05-.009-.093-.028-.129s-.047-.064-.084-.083a.315.315 0 0 0-.142-.029h-.259v1.301h-.32v-1.551zm.867 1.551-.354-.691.338-.002.358.679v.015h-.342zm1.338-.406c0-.028-.004-.053-.013-.075s-.023-.043-.045-.062c-.022-.019-.053-.038-.093-.056s-.091-.038-.154-.058c-.07-.023-.137-.048-.2-.077s-.118-.061-.166-.099c-.048-.038-.085-.083-.113-.133s-.04-.109-.04-.176c0-.065.014-.123.043-.176s.068-.099.119-.136c.051-.038.111-.068.181-.088s.147-.031.231-.031c.114 0 .214.021.299.062s.151.098.198.169a.433.433 0 0 1 .071.246h-.317c0-.045-.01-.085-.029-.119s-.047-.062-.085-.082a.303.303 0 0 0-.143-.03c-.055 0-.102.009-.138.026s-.065.039-.083.067a.17.17 0 0 0-.028.094c0 .026.006.05.019.071s.033.041.06.06.059.036.097.052c.038.016.083.032.133.048.084.026.159.054.223.086s.119.068.162.108c.043.04.076.085.098.135s.033.108.033.172a.368.368 0 0 1-.153.316c-.05.037-.109.065-.178.084a.869.869 0 0 1-.458-.001.671.671 0 0 1-.203-.093c-.06-.041-.109-.094-.145-.158s-.054-.14-.054-.227h.321c0 .048.007.089.022.122s.036.06.063.081c.028.021.06.035.098.045a.496.496 0 0 0 .262-.009.169.169 0 0 0 .107-.159z" style="fill:var(--color7, #8e8f99)"/></symbol>

<symbol id="icon-client3" viewBox="0 0 32 32"><path fill="#8e8f99" d="M4.953 30.344a.098.098 0 0 1 .062.024l.161.151a1.32 1.32 0 0 1-.452.286 1.776 1.776 0 0 1-.64.103 1.723 1.723 0 0 1-.602-.096 1.339 1.339 0 0 1-.454-.271 1.211 1.211 0 0 1-.293-.419 1.367 1.367 0 0 1-.102-.537 1.294 1.294 0 0 1 .11-.539c.07-.156.176-.298.311-.419.137-.118.301-.211.482-.273.198-.065.408-.098.62-.096.197-.004.393.026.576.087.159.059.305.141.432.242l-.135.161a.137.137 0 0 1-.034.029.092.092 0 0 1-.054.012.127.127 0 0 1-.058-.017l-.072-.043-.1-.055a1.147 1.147 0 0 0-.318-.096 1.47 1.47 0 0 0-.239-.017 1.316 1.316 0 0 0-.446.072 1.042 1.042 0 0 0-.349.202.931.931 0 0 0-.227.323 1.065 1.065 0 0 0-.082.425c-.002.147.025.293.082.432a.924.924 0 0 0 .556.52c.131.046.272.07.414.069a1.82 1.82 0 0 0 .245-.014.981.981 0 0 0 .53-.221.122.122 0 0 1 .076-.027zM9.59 29.586a1.28 1.28 0 0 1-.108.533c-.065.155-.168.296-.302.414s-.296.211-.475.272a1.986 1.986 0 0 1-1.22 0 1.419 1.419 0 0 1-.472-.273 1.202 1.202 0 0 1-.305-.419 1.368 1.368 0 0 1 0-1.069c.069-.156.172-.299.305-.42.135-.114.295-.204.472-.262a1.96 1.96 0 0 1 1.221 0c.178.062.34.155.474.273a1.233 1.233 0 0 1 .411.95zm-.422 0a1.13 1.13 0 0 0-.076-.429.882.882 0 0 0-.554-.523 1.43 1.43 0 0 0-.887 0 .956.956 0 0 0-.339.202.867.867 0 0 0-.217.321 1.241 1.241 0 0 0 0 .858.867.867 0 0 0 .217.321c.094.088.21.156.339.201.286.091.601.091.887 0a.954.954 0 0 0 .339-.201.907.907 0 0 0 .215-.321c.054-.138.08-.283.076-.429zM12.754 30.035l.042.096c.016-.034.03-.065.046-.096a.862.862 0 0 1 .052-.094l1.026-1.593c.02-.027.038-.045.058-.05a.297.297 0 0 1 .084-.009h.303v2.592h-.359V28.894a.66.66 0 0 1 0-.089l-1.032 1.616c-.013.024-.034.045-.06.059s-.057.022-.088.022h-.058c-.031 0-.062-.007-.088-.021s-.047-.035-.06-.059l-1.062-1.626v2.081h-.347v-2.586h.303a.297.297 0 0 1 .084.009.11.11 0 0 1 .056.05l1.048 1.595a.47.47 0 0 1 .052.093zM16.614 29.907v.971h-.402V28.29h.895c.169-.003.338.016.5.057.13.032.25.086.353.161.089.07.158.157.201.254a.765.765 0 0 1 .068.331.724.724 0 0 1-.291.59 1.046 1.046 0 0 1-.355.172c-.156.043-.32.063-.484.06l-.486-.007zm0-.278h.486c.106.001.211-.012.311-.039a.696.696 0 0 0 .225-.111.488.488 0 0 0 .185-.39c.005-.072-.009-.144-.04-.211s-.079-.127-.14-.177a.875.875 0 0 0-.54-.139h-.486v1.067zM22.011 30.881h-.317a.155.155 0 0 1-.088-.024.156.156 0 0 1-.052-.06l-.273-.626H19.91l-.283.626a.15.15 0 0 1-.14.084h-.317l1.204-2.592h.418l1.221 2.592zm-1.988-.962h1.132l-.478-1.055a1.556 1.556 0 0 1-.09-.244l-.046.136c-.014.041-.03.079-.044.11l-.474 1.053zM23.745 28.301a.163.163 0 0 1 .06.046l1.757 1.954v-2.012h.359v2.592h-.201a.203.203 0 0 1-.082-.015.207.207 0 0 1-.064-.048l-1.755-1.952a.66.66 0 0 1 0 .089v1.926h-.359v-2.592h.213a.195.195 0 0 1 .072.012zM28.88 29.85v1.029h-.402V29.85l-1.11-1.561h.359a.14.14 0 0 1 .086.022c.022.017.04.036.054.058l.695 1.007a1.05 1.05 0 0 1 .122.23l.052-.111a.925.925 0 0 1 .068-.118l.684-1.014a.27.27 0 0 1 .052-.055.137.137 0 0 1 .086-.026h.363l-1.112 1.568zM12.555 23.94c.175.019.351.034.53.048 2.709-1.035 5-2.73 6.588-4.872s2.402-4.636 2.339-7.171l-2.985-2.551c.607 2.699.323 5.489-.82 8.058s-3.1 4.815-5.652 6.488z" style="fill:var(--color7, #8e8f99)"/><path fill="#8e8f99" d="m11.489 23.821.08.014c2.727-1.667 4.806-3.994 5.969-6.681s1.355-5.61.552-8.392l-4.252-3.633c1.72 2.986 2.412 6.328 1.996 9.637s-1.923 6.449-4.345 9.055zM25.909 14.94c-.722 2.785-2.477 5.297-5.003 7.163a15.948 15.948 0 0 1-2.377 1.458c2.057-.517 3.947-1.43 5.526-2.669s2.803-2.772 3.578-4.48l-1.724-1.472z" style="fill:var(--color7, #8e8f99)"/><path fill="#8e8f99" d="m25.233 14.53-2.455-2.098c-.047 2.392-.843 4.729-2.305 6.769s-3.537 3.708-6.008 4.831h.012c.551 0 1.101-.028 1.648-.084 2.31-.806 4.351-2.087 5.94-3.731s2.678-3.597 3.168-5.688zM11.844 3.597 8.915 1.091c-2.618.865-4.87 2.384-6.461 4.36S.008 9.768 0 12.166c.01 2.65 1.054 5.222 2.967 7.308s4.586 3.568 7.595 4.21c2.686-2.796 4.259-6.252 4.49-9.864s-.893-7.193-3.207-10.223zM32 14.144c-.011-3.144-1.477-6.157-4.079-8.38s-6.129-3.476-9.809-3.485c-1.7-.002-3.387.267-4.973.791l17.933 15.322c.614-1.354.929-2.794.928-4.247z" style="fill:var(--color7, #8e8f99)"/></symbol>

<symbol id="icon-client2" viewBox="0 0 32 32"><path fill="#8e8f99" d="M14.224 1.806h-.084a9.985 9.985 0 0 0-.388-.014h-.28c-.244 0-.494.006-.741.019a.523.523 0 0 0-.056 0 17.4 17.4 0 0 0-6.471 1.651l-.266.128v13.625l.623-.211a23.32 23.32 0 0 1 1.731-.513 21.155 21.155 0 0 1 4.982-.662v1.79a15.56 15.56 0 0 0-.655.019h-.051a19.948 19.948 0 0 0-3.833.588c-1.59.398-3.124.996-4.566 1.779V2.53A18.3 18.3 0 0 1 8.959.582 18.343 18.343 0 0 1 13.474 0h.263c.314.008.621.022.909.044.759.053 1.511.173 2.249.358v1.762a13.947 13.947 0 0 0-2.179-.329l-.045-.004c-.152-.013-.304-.026-.446-.026zm3.101 1.801c.391.03.796.044 1.205.044a19.352 19.352 0 0 0 4.747-.609c1.589-.4 3.123-.998 4.564-1.781v17.163a18.313 18.313 0 0 1-4.792 1.948 18.486 18.486 0 0 1-4.515.581 13.778 13.778 0 0 1-3.425-.404V3.274c.265.061.537.117.814.164.455.077.934.133 1.401.167zm8.735.133-.623.21c-.573.192-1.15.365-1.731.518a21.098 21.098 0 0 1-5.173.663c-.406 0-.78-.011-1.141-.034l-.497-.033v14.017l.427.038c.395.034.803.052 1.214.052a16.573 16.573 0 0 0 4.074-.527 17.107 17.107 0 0 0 3.184-1.144l.266-.128V3.742zM5.377 25.977a.912.912 0 0 0-.693-.28 1.034 1.034 0 0 0-.4.075.91.91 0 0 0-.512.518 1.023 1.023 0 0 0-.072.387v2.335c-.006.165.026.328.092.479.055.12.135.226.234.313a.815.815 0 0 0 .321.166c.114.032.231.048.349.049a.972.972 0 0 0 .892-.61.951.951 0 0 0 .075-.372v-.261h-.61v.208a.528.528 0 0 1-.036.208.359.359 0 0 1-.089.131.365.365 0 0 1-.128.067.425.425 0 0 1-.128.022.314.314 0 0 1-.286-.125.548.548 0 0 1-.081-.313v-2.177a.738.738 0 0 1 .075-.349.31.31 0 0 1 .299-.141.33.33 0 0 1 .272.131c.068.09.104.2.101.313v.202h.604v-.238a1.093 1.093 0 0 0-.279-.737zM9.002 25.95a1.051 1.051 0 0 0-1.38 0 .961.961 0 0 0-.237.327 1.099 1.099 0 0 0-.089.452v2.239a1.08 1.08 0 0 0 .089.459c.055.12.136.227.237.313a.94.94 0 0 0 .322.197 1.028 1.028 0 0 0 .728 0c.121-.044.233-.111.33-.197a.948.948 0 0 0 .23-.313 1.08 1.08 0 0 0 .089-.459v-2.239a1.08 1.08 0 0 0-.089-.452 1.015 1.015 0 0 0-.23-.327zm-.284 3.019a.405.405 0 0 1-.121.324.445.445 0 0 1-.574 0 .397.397 0 0 1-.121-.324V26.73a.405.405 0 0 1 .121-.324.445.445 0 0 1 .574 0 .397.397 0 0 1 .121.324v2.239zM13.764 29.969V25.73h-.587l-.771 2.244h-.011l-.777-2.244h-.581v4.239h.606V27.39h.011l.593 1.823h.302l.598-1.823h.011v2.579h.606zM17.205 26.027a.84.84 0 0 0-.343-.232 1.363 1.363 0 0 0-.439-.066h-.9v4.239h.604v-1.656h.311c.189.009.376-.031.545-.116a.882.882 0 0 0 .332-.324 1.02 1.02 0 0 0 .139-.369c.024-.16.035-.321.033-.482a2.421 2.421 0 0 0-.059-.606.898.898 0 0 0-.223-.39zm-.311 1.292a.547.547 0 0 1-.056.221.346.346 0 0 1-.156.149.619.619 0 0 1-.285.053h-.276v-1.441h.311a.578.578 0 0 1 .272.053.349.349 0 0 1 .142.157.62.62 0 0 1 .053.236v.282c0 .099.006.2 0 .291h-.006zM20.066 25.73h-.495l-.934 4.239h.604l.177-.911h.823l.177.911h.604l-.957-4.239zm-.557 2.751.297-1.537h.011l.296 1.537h-.604zM23.969 28.284h-.011l-.912-2.554h-.581v4.239h.604V27.42h.012l.923 2.549h.568V25.73h-.604v2.554zM27.66 25.73l-.486 1.685h-.012l-.486-1.685h-.64l.83 2.447v1.792h.604v-1.792l.83-2.447h-.64zM3.692 31.166h.291v.817h.198v-.817h.29v-.167h-.778v.167zM6.14 30.998l-.381.984h.21l.081-.224h.392l.084.224h.215l-.391-.984h-.21zm-.032.595.134-.365.134.365h-.268zM8.559 31.62h.227v.127a.38.38 0 0 1-.233.083.244.244 0 0 1-.209-.093.411.411 0 0 1-.073-.257c0-.219.095-.329.283-.329a.206.206 0 0 1 .222.157l.195-.038c-.042-.192-.181-.289-.417-.289a.495.495 0 0 0-.344.127.494.494 0 0 0-.141.379.532.532 0 0 0 .126.369.477.477 0 0 0 .374.144.59.59 0 0 0 .417-.157v-.388h-.427v.166zM11.029 30.998h-.199v.984h.69v-.167h-.49v-.817zM13.118 30.998h-.199v.984h.199v-.984zM15.161 31.656l-.403-.657h-.193v.984h.185v-.643l.395.643h.198v-.984h-.182v.657zM17.007 31.549h.49v-.167h-.49v-.216h.528v-.167h-.727v.984h.747v-.167h-.548v-.266zM21.484 31.387h-.388v-.388h-.198v.984h.198v-.43h.388v.43h.198v-.984h-.198v.388zM23.342 31.549h.492v-.167h-.492v-.216h.529v-.167h-.727v.984h.746v-.167h-.548v-.266zM25.86 31.549c.171-.027.258-.117.258-.274a.236.236 0 0 0-.096-.219.553.553 0 0 0-.288-.058h-.417v.984h.198v-.412h.039a.261.261 0 0 1 .123.022.21.21 0 0 1 .07.072l.215.313h.237l-.12-.192a.685.685 0 0 0-.218-.236zm-.199-.136h-.146v-.247h.156a.526.526 0 0 1 .201.023c.014.013.026.029.033.046a.133.133 0 0 1-.005.111.128.128 0 0 1-.037.043.547.547 0 0 1-.201.023zM27.76 31.549h.49v-.167h-.49v-.216h.529v-.167h-.729v.984h.747v-.167h-.548v-.266z" style="fill:var(--color7, #8e8f99)"/></symbol>

<symbol id="icon-client1" viewBox="0 0 32 32"><path fill="#8e8f99" d="m6.128 0 4.771 4.546-8.856-.005v22.054h23.149v-8.432l4.766 4.541V.001H6.128zm18.854 17.629L11.454 4.74h13.528v12.889zm-4.2 5.74H5.706V8.536h1.066v13.828h14.01v1.004zM8.712 30.68l-.562-1.155h-.464l.814 1.529v.891h.421v-.891l.815-1.529h-.462l-.562 1.155zm2.071-1.155h.1l.914 2.42h-.439l-.196-.567h-.937l-.195.567h-.437l.911-2.42h.279zm-.443 1.522h.709l-.355-1.027-.354 1.027zm2.924-.401-.053-.068a1.266 1.266 0 0 1-.145-.238.647.647 0 0 1 .026-.565.519.519 0 0 1 .221-.209.71.71 0 0 1 .334-.075c.123 0 .229.025.317.075.09.049.158.114.206.194.049.081.073.17.073.266 0 .076-.014.146-.042.209s-.066.121-.115.173a1.188 1.188 0 0 1-.17.148l-.168.122.479.566a.966.966 0 0 0 .105-.452h.346c0 .117-.012.229-.035.334a1.039 1.039 0 0 1-.177.4l.355.418h-.464l-.141-.165a.952.952 0 0 1-.248.136 1.107 1.107 0 0 1-.376.063c-.161 0-.3-.029-.417-.088s-.208-.14-.273-.243a.665.665 0 0 1-.095-.354c0-.099.021-.185.061-.259a.797.797 0 0 1 .168-.209c.066-.059.14-.119.224-.178zm.199.243-.05.036a.61.61 0 0 0-.131.138.394.394 0 0 0-.023.409.344.344 0 0 0 .135.138c.06.033.132.05.218.05a.62.62 0 0 0 .391-.137l-.539-.633zm.096-.442.148-.1a.552.552 0 0 0 .15-.136.3.3 0 0 0 .045-.17.241.241 0 0 0-.255-.233.246.246 0 0 0-.231.143.338.338 0 0 0-.028.141c0 .05.013.101.038.155a.994.994 0 0 0 .133.2zm4.234.71h-.416a.776.776 0 0 1-.076.268.383.383 0 0 1-.168.165.626.626 0 0 1-.288.056c-.098 0-.181-.019-.251-.058s-.127-.094-.173-.165a.822.822 0 0 1-.1-.254 1.62 1.62 0 0 1-.032-.332v-.204c0-.129.012-.243.035-.342.024-.101.06-.186.108-.254s.107-.121.178-.156a.557.557 0 0 1 .249-.053c.116 0 .211.02.283.06a.378.378 0 0 1 .163.17.756.756 0 0 1 .073.268h.416a1.046 1.046 0 0 0-.136-.43c-.073-.125-.176-.223-.309-.294s-.296-.106-.489-.106c-.152 0-.289.027-.411.08a.862.862 0 0 0-.311.231c-.086.1-.153.22-.2.361a1.546 1.546 0 0 0-.068.472v.201c0 .174.022.331.067.472.045.141.111.261.196.361a.878.878 0 0 0 .307.229c.12.053.254.08.404.08.195 0 .361-.035.497-.106s.242-.168.317-.291a.958.958 0 0 0 .133-.424zm2.309-.356v-.133c0-.183-.024-.346-.073-.49a1.08 1.08 0 0 0-.204-.371.868.868 0 0 0-.317-.234 1.005 1.005 0 0 0-.409-.081c-.148 0-.284.027-.407.081a.876.876 0 0 0-.317.234 1.084 1.084 0 0 0-.206.371 1.52 1.52 0 0 0-.073.49v.133c0 .183.024.347.073.492.05.145.12.269.209.371s.196.18.317.234c.123.053.259.08.407.08.15 0 .286-.027.409-.08a.879.879 0 0 0 .316-.234c.089-.102.157-.226.204-.371s.072-.309.072-.492zm-.418-.136v.136c0 .135-.013.255-.04.359a.777.777 0 0 1-.113.264.493.493 0 0 1-.431.214.556.556 0 0 1-.246-.053.527.527 0 0 1-.186-.161c-.051-.072-.09-.16-.116-.264s-.04-.224-.04-.359v-.136c0-.135.013-.254.04-.357a.784.784 0 0 1 .115-.261.5.5 0 0 1 .43-.215c.092 0 .175.018.248.055a.47.47 0 0 1 .184.16c.051.07.089.157.115.261.027.103.04.222.04.357z" style="fill:var(--color7, #8e8f99)"/></symbol>

<symbol id="icon-features4" viewBox="0 0 32 32"><path fill="#4d5ae5" d="M31.974 4.524a.534.534 0 0 0-.43-.363l-1.91-.278-.855-1.731c-.179-.365-.777-.365-.956 0l-.855 1.731-1.91.278a.535.535 0 0 0-.296.91l1.383 1.348-.326 1.903c-.034.2.048.402.212.522a.53.53 0 0 0 .562.04l1.709-.899 1.709.899a.536.536 0 0 0 .775-.563l-.326-1.903 1.383-1.348a.536.536 0 0 0 .135-.547zm-2.463 1.327a.534.534 0 0 0-.153.472l.191 1.114-1-.526a.533.533 0 0 0-.498 0l-1.001.526.191-1.114a.534.534 0 0 0-.153-.472l-.81-.789 1.119-.163a.532.532 0 0 0 .402-.292l.5-1.013.5 1.013a.535.535 0 0 0 .402.292l1.119.163-.809.789zM26.133 20.522h-1.067v1.067h1.067v-1.067zM26.133 22.656h-1.067v1.067h1.067v-1.067zM27.2 21.589h-1.067v1.067H27.2v-1.067zM25.067 21.589H24v1.067h1.067v-1.067zM22.4 26.389h-1.067v1.067H22.4v-1.067zM22.4 28.522h-1.067v1.067H22.4v-1.067zM23.467 27.456H22.4v1.067h1.067v-1.067zM21.333 27.456h-1.067v1.067h1.067v-1.067zM16 24.256h-1.067v1.067H16v-1.067zM16 26.389h-1.067v1.067H16v-1.067zM17.067 25.322H16v1.067h1.067v-1.067zM14.933 25.322h-1.067v1.067h1.067v-1.067zM5.867 6.122H4.8v1.067h1.067V6.122zM5.867 8.255H4.8v1.067h1.067V8.255z" style="fill:var(--color6, #4d5ae5)"/><path fill="#4d5ae5" d="M6.933 7.189H5.866v1.067h1.067V7.189zM4.8 7.189H3.733v1.067H4.8V7.189z" style="fill:var(--color6, #4d5ae5)"/><path fill="#2e2f42" d="M24.715 14.159a1.775 1.775 0 0 0-1.188-.705 1.778 1.778 0 0 0-1.34.352l-1.252.96-1.898 1.417-1.358-.541c2.421-1.086 4.114-3.508 4.114-6.32 0-3.823-3.123-6.933-6.961-6.933s-6.961 3.11-6.961 6.933a6.86 6.86 0 0 0 1.12 3.758l-2.764-.024h-.005c-.009 0-.015.004-.023.005a.515.515 0 0 0-.155.031l-.038.013c-.006.003-.013.003-.019.006l-3.233 1.596-.001.001-1.893.911a.397.397 0 0 0-.063.035 1.779 1.779 0 0 0-.598 2.295c.22.429.595.745 1.056.889a1.776 1.776 0 0 0 1.378-.128l1.388-.738 2.264-1.169 1.357-.008L2.2 22.211l-.002.001-1.339 1.333c-.316.315-.49.732-.49 1.178s.174.863.49 1.179c.325.323.752.485 1.179.485s.854-.162 1.18-.485l1.314-1.309 1.741-1.3.901.897-1.762 1.754-.002.001-1.339 1.333c-.316.315-.49.732-.49 1.178s.174.863.49 1.179c.325.323.753.485 1.18.485s.855-.162 1.18-.485l3.482-3.467.001-.002 1.01-1-.004-.004c.006-.006.015-.009.022-.015l5.166-5.658 3.471.494a.52.52 0 0 0 .262-.033c.018-.006.033-.015.05-.023.019-.01.039-.015.058-.027l3.213-2.133c.012-.008.018-.021.029-.029.013-.01.029-.014.041-.026l1.271-1.191c.662-.62.753-1.635.212-2.362zM2.13 17.77a.714.714 0 0 1-.558.052.717.717 0 0 1-.213-1.26l1.314-.632.449 1.313-.992.527zm3.498-1.828-1.548.8-.439-1.283 2.027-1.001-.04 1.484zm15.099-6.62a5.79 5.79 0 0 1-.599 2.559l-4.181-1.899a1.863 1.863 0 0 0-.788-1.388l1.464-4.86c2.378.756 4.105 2.974 4.105 5.588zm-11.789 0c0-3.235 2.644-5.867 5.894-5.867.253 0 .5.021.745.052l-1.432 4.754c-.019-.001-.037-.006-.057-.006-1.033 0-1.873.837-1.873 1.867s.84 1.867 1.873 1.867c.694 0 1.294-.383 1.618-.945l3.862 1.755a5.894 5.894 0 0 1-4.737 2.39c-3.25 0-5.894-2.632-5.894-5.867zm5.956.8c0 .441-.362.8-.806.8s-.806-.359-.806-.8c0-.441.362-.8.806-.8s.806.359.806.8zM2.465 25.146a.608.608 0 0 1-.854.001.592.592 0 0 1 0-.844l.962-.958.851.848-.959.955zm3.214 3.734a.608.608 0 0 1-.855.001.592.592 0 0 1 0-.844l.963-.959.852.848-.96.955zm3.481-3.469-.002.001-1.765 1.76-.852-.848 1.763-1.755.002-.001c.04-.04.065-.088.09-.135.007-.014.02-.026.026-.04.017-.041.019-.085.026-.129.003-.025.014-.047.014-.073 0-.036-.013-.07-.02-.106-.006-.032-.006-.065-.019-.095a.55.55 0 0 0-.091-.138c-.01-.012-.014-.027-.025-.038h-.001l-.001-.002-1.607-1.6c-.017-.017-.039-.024-.058-.038a.507.507 0 0 0-.087-.058.515.515 0 0 0-.093-.033.507.507 0 0 0-.103-.02.5.5 0 0 0-.095.005.53.53 0 0 0-.104.02.477.477 0 0 0-.094.045c-.02.011-.042.015-.061.029L4.23 23.486l-.901-.897 2.399-2.386 4.361 4.289-.928.919zm6.819-7.017c-.015-.002-.03.004-.045.003a.556.556 0 0 0-.3.075.492.492 0 0 0-.083.061c-.013.011-.028.017-.04.029l-4.698 5.146-4.328-4.257 2.833-2.818a.534.534 0 0 0-.379-.911v-.001l-2.219.013.028-1.607 3.104.027a6.947 6.947 0 0 0 4.981 2.101c.437 0 .864-.045 1.279-.123.04.032.079.065.13.085l2.41.96.152.758.178.885-3.003-.427zm4.041.178-.313-1.558 1.446-1.08.947 1.257-2.08 1.381zm3.754-2.831-.838.785-.931-1.236.831-.637a.735.735 0 0 1 .543-.143.718.718 0 0 1 .48.284.713.713 0 0 1-.085.947z" style="fill:var(--color4, #2e2f42)"/><path fill="#2e2f42" d="m13.602 18.544-2.143-2.133a.534.534 0 0 0-.753 0l-2.142 2.133a.537.537 0 0 0 0 .756l2.142 2.133a.536.536 0 0 0 .753 0l2.143-2.133a.535.535 0 0 0 0-.756zm-2.519 1.759-1.387-1.381 1.387-1.381 1.387 1.381-1.387 1.381zM17.164 5.071l-.258 1.036c.071.018 1.738.452 1.738 2.149h1.067c0-2.017-1.666-2.965-2.547-3.185zM19.711 9.322h-1.067v1.067h1.067V9.322z" style="fill:var(--color4, #2e2f42)"/></symbol>

<symbol id="icon-features3" viewBox="0 0 32 32"><path fill="#4d5ae5" d="M14.925 14.965h1.066v4.798h-1.066v-4.797zM19.19 17.097h1.066v2.665H19.19v-2.665zM10.661 18.696h1.066v1.066h-1.066v-1.066zM7.463 18.163h1.066v1.599H7.463v-1.599z" style="fill:var(--color6, #4d5ae5)"/><path fill="#2e2f42" d="M1.599 28.291h25.587a1.6 1.6 0 0 0 1.599-1.599V24.56a1.6 1.6 0 0 0-1.599-1.599h-.533V9.668L29.681 6.8a1.608 1.608 0 1 0-.746-.763L26.654 8.2V6.97a1.6 1.6 0 0 0-1.599-1.599H3.733A1.6 1.6 0 0 0 2.134 6.97v15.992h-.533a1.6 1.6 0 0 0-1.599 1.599v2.132a1.6 1.6 0 0 0 1.599 1.599zM30.384 4.837a.533.533 0 1 1 0 1.067.533.533 0 0 1 0-1.067zM3.198 6.969c0-.294.239-.533.533-.533h21.322c.294 0 .533.239.533.533v2.239l-1.066 1.013V8.035a.533.533 0 0 0-.533-.533H4.797a.533.533 0 0 0-.533.533v13.326c0 .294.239.533.533.533h19.19a.533.533 0 0 0 .533-.533v-9.674l1.066-1.01v12.284H3.198V6.969zm4.798 6.93a1.598 1.598 0 1 0 1.107 2.749l1.853.93a.532.532 0 0 0 .636-.123l3.939-4.431 3.872 2.901a.533.533 0 0 0 .686-.039l3.365-3.188v8.131H5.33V8.569h18.124v2.66l-3.771 3.572-3.904-2.927a.533.533 0 0 0-.718.072l-3.993 4.493-1.493-.746c.011-.064.018-.129.02-.193a1.6 1.6 0 0 0-1.599-1.599zm.533 1.599a.533.533 0 1 1-1.067 0 .533.533 0 0 1 1.067 0zm3.198 8.529h5.331v.533a.533.533 0 0 1-.533.533h-4.264a.533.533 0 0 1-.533-.533v-.533zm-10.661.533c0-.294.239-.533.533-.533h9.062v.533a1.6 1.6 0 0 0 1.599 1.599h4.264a1.6 1.6 0 0 0 1.599-1.599v-.533h9.062c.294 0 .533.239.533.533v2.132a.533.533 0 0 1-.533.533H1.598a.533.533 0 0 1-.533-.533V24.56z" style="fill:var(--color4, #2e2f42)"/></symbol>

<symbol id="icon-features2" viewBox="0 0 32 32"><path fill="#2e2f42" d="M31.297 15.301C31.295 6.849 24.442-.002 15.989 0S.686 6.855.688 15.308a15.304 15.304 0 0 0 10.649 14.576.662.662 0 0 0 .529-.065.637.637 0 0 0 .283-.356l3.865-12.25a1.912 1.912 0 1 0-.84-3.635l-5.106-5.107a.637.637 0 0 0-.902.902l5.103 5.109a1.876 1.876 0 0 0 .536 2.309l-3.683 11.673C3.844 25.783.118 17.71 2.799 10.432S13.553-.572 20.831 2.109c7.278 2.681 11.004 10.754 8.323 18.032a14.042 14.042 0 0 1-7.462 7.973l-.398-1.874a.637.637 0 0 0-1.049-.344l-3.837 3.426a.637.637 0 0 0 .231 1.084l4.899 1.564a.638.638 0 0 0 .819-.74l-.391-1.839a15.255 15.255 0 0 0 9.329-14.089zm-15.305-.637a.638.638 0 1 1 0 1.277.638.638 0 0 1 0-1.277zm2.101 14.864 2.184-1.948.603 2.84-2.787-.892z" style="fill:var(--color4, #2e2f42)"/><path fill="#4d5ae5" d="M15.354 3.185V4.46a.638.638 0 1 0 1.276 0V3.185a.638.638 0 0 0-1.276 0zM3.876 14.664a.638.638 0 0 0 0 1.276h1.275a.638.638 0 1 0 0-1.276H3.876zM28.108 15.939a.638.638 0 1 0 0-1.276h-1.275a.638.638 0 0 0 0 1.276h1.275z" style="fill:var(--color6, #4d5ae5)"/></symbol>

<symbol id="icon-features1" viewBox="0 0 32 32"><path fill="#2e2f42" d="m30.773 22.098-8.443-8.505.937-4.615c.242.094.499.144.758.146h.006a2.159 2.159 0 1 0-2.008-1.435l-4.96.605L8.972.161a.534.534 0 0 0-.377-.16.532.532 0 0 0-.373.155L6.709 1.66a.534.534 0 0 0 0 .754l.814.826a14.943 14.943 0 0 0 2.519 17.663.513.513 0 0 0 .146.098c-.034.18-.051.364-.052.547v6.187h-6.4a2.67 2.67 0 0 0-2.667 2.667v1.067c0 .295.239.533.533.533h24.533a.533.533 0 0 0 .533-.533v-1.067a2.67 2.67 0 0 0-2.667-2.667h-6.4v-2.742a15.09 15.09 0 0 0 3.049.32 14.854 14.854 0 0 0 7.04-1.783l.818.823a.534.534 0 0 0 .377.16.532.532 0 0 0 .373-.155l1.513-1.504a.534.534 0 0 0 0-.754zM23.28 6.233a1.067 1.067 0 1 1 .753 1.822h-.003a1.067 1.067 0 0 1-.747-1.823h-.002zm-1.256 3.505-.598 2.946-1.175-1.182 1.774-1.763zm-.605-.902-1.92 1.909-1.485-1.493 3.405-.415zM24.004 28.8a1.6 1.6 0 0 1 1.6 1.6v.533H2.137V30.4a1.6 1.6 0 0 1 1.6-1.6h20.267zm-7.467-2.133v1.067h-5.333v-1.067h5.333zM11.204 25.6v-4.053c0-1.294 1.196-2.347 2.667-2.347s2.667 1.053 2.667 2.347V25.6h-5.333zm6.4-1.696v-2.357c0-1.882-1.675-3.413-3.733-3.413a3.8 3.8 0 0 0-3.281 1.786A13.87 13.87 0 0 1 8.311 4.033l18.602 18.708a13.818 13.818 0 0 1-9.309 1.163zm11.289-.684L7.836 2.039l.755-.752 7.935 7.98c.004 0 .006.007.01.01l13.115 13.191-.757.752z" style="fill:var(--color4, #2e2f42)"/><path fill="#4d5ae5" d="M13.876 20.267h-.005a1.6 1.6 0 1 0-.004 3.2h.005a1.6 1.6 0 1 0 .004-3.2zm.373 1.978a.534.534 0 0 1-.752-.756.534.534 0 0 1 .373-.155.534.534 0 0 1 .374.911h.005z" style="fill:var(--color6, #4d5ae5)"/></symbol>

<symbol id="icon-team-img-3" viewBox="0 0 32 32"><path fill="#f4f4fd" d="M21.329 5.313h2.921V.225C23.746.156 22.013 0 19.994 0c-4.212 0-7.097 2.649-7.097 7.519V12H8.249v5.688h4.648V32h5.699V17.689h4.46l.708-5.688h-5.169V8.082c.001-1.644.444-2.769 2.735-2.769z" style="fill:var(--color8, #f4f4fd)"/></symbol>

<symbol id="icon-checkbox" viewBox="0 0 32 32">
<path stroke-linejoin="miter" stroke-linecap="butt" stroke-miterlimit="4" stroke-width="2" d="M4 1h24c1.657 0 3 1.343 3 3v24c0 1.657-1.343 3-3 3h-24c-1.657 0-3-1.343-3-3v-24c0-1.657 1.343-3 3-3z"></path>
</symbol>

<symbol id="icon-team-img-2" viewBox="0 0 32 32"><path fill="#f4f4fd" d="M32 6.078c-1.19.522-2.458.868-3.78 1.036a6.523 6.523 0 0 0 2.886-3.626 13.11 13.11 0 0 1-4.16 1.588A6.574 6.574 0 0 0 22.154 3c-3.632 0-6.556 2.948-6.556 6.562 0 .52.044 1.02.152 1.496-5.454-.266-10.28-2.88-13.522-6.862a6.605 6.605 0 0 0-.898 3.316 6.57 6.57 0 0 0 2.914 5.452 6.479 6.479 0 0 1-2.964-.808v.072c0 3.188 2.274 5.836 5.256 6.446a6.548 6.548 0 0 1-1.72.216 5.8 5.8 0 0 1-1.242-.112c.85 2.598 3.262 4.508 6.13 4.57a13.182 13.182 0 0 1-8.134 2.798c-.538 0-1.054-.024-1.57-.09A18.469 18.469 0 0 0 10.064 29c12.072 0 18.672-10 18.672-18.668 0-.29-.01-.57-.024-.848A13.087 13.087 0 0 0 32 6.078z" style="fill:var(--color8, #f4f4fd)"/></symbol>

<symbol id="icon-team-img-1" viewBox="0 0 32 32"><path fill="#f4f4fd" d="M31.969 9.408c-.075-1.7-.35-2.869-.744-3.882a7.803 7.803 0 0 0-1.85-2.838A7.867 7.867 0 0 0 26.543.844C25.524.45 24.361.175 22.661.1 20.948.019 20.404 0 16.06 0s-4.888.019-6.595.094c-1.7.075-2.869.35-3.882.744a7.803 7.803 0 0 0-2.838 1.85A7.867 7.867 0 0 0 .901 5.52C.507 6.539.232 7.702.157 9.402c-.081 1.713-.1 2.257-.1 6.601s.019 4.888.094 6.595c.075 1.7.35 2.869.744 3.882a7.895 7.895 0 0 0 1.85 2.838 7.867 7.867 0 0 0 2.832 1.844c1.019.394 2.182.669 3.882.744 1.706.075 2.25.094 6.595.094s4.888-.018 6.595-.094c1.7-.075 2.869-.35 3.882-.744a8.181 8.181 0 0 0 4.682-4.682c.394-1.019.669-2.182.744-3.882.075-1.707.094-2.251.094-6.595s-.006-4.888-.081-6.595zm-2.882 13.065c-.069 1.563-.331 2.407-.55 2.969a5.307 5.307 0 0 1-3.038 3.038c-.563.219-1.413.481-2.969.55-1.688.075-2.194.094-6.464.094s-4.782-.018-6.464-.094c-1.563-.069-2.407-.331-2.969-.55a4.926 4.926 0 0 1-1.838-1.194 4.974 4.974 0 0 1-1.194-1.838c-.219-.563-.481-1.413-.55-2.969-.075-1.688-.094-2.194-.094-6.464s.019-4.782.094-6.464c.069-1.563.331-2.407.55-2.969a4.868 4.868 0 0 1 1.2-1.838A4.974 4.974 0 0 1 6.639 3.55c.563-.219 1.413-.481 2.969-.55 1.688-.075 2.194-.094 6.464-.094 4.276 0 4.782.019 6.464.094 1.563.069 2.407.331 2.969.55a4.914 4.914 0 0 1 1.838 1.194 4.974 4.974 0 0 1 1.194 1.838c.219.563.481 1.413.55 2.969.075 1.688.094 2.194.094 6.464s-.019 4.77-.094 6.457z" style="fill:var(--color8, #f4f4fd)"/><path fill="#f4f4fd" d="M16.059 7.782c-4.538 0-8.22 3.682-8.22 8.22s3.682 8.22 8.22 8.22 8.22-3.682 8.22-8.22-3.682-8.22-8.22-8.22zm0 13.553a5.333 5.333 0 0 1 0-10.664 5.333 5.333 0 0 1 0 10.664zM26.524 7.457a1.919 1.919 0 1 1-3.838 0 1.919 1.919 0 0 1 3.838 0z" style="fill:var(--color8, #f4f4fd)"/></symbol>
</defs></svg>